<svg width="140" height="60" viewBox="0 0 140 60" fill="none" xmlns="http://www.w3.org/2000/svg">
<g clip-path="url(#clip0_164_1317)">
<path d="M39.0002 59.9242H38.5652L38.0546 58.6915H35.4066L34.8959 59.9242H34.442L36.4469 55.1075H36.9954L39.0002 59.9242ZM35.5768 58.3123H37.9032L36.7306 55.4867L35.5768 58.3123Z" fill="#221C35"/>
<path d="M43.1613 58.3881V59.9242H42.7452V55.1075H44.8068C45.7146 55.1075 46.4901 55.6195 46.4901 56.7573C46.4901 57.7813 45.7146 58.3881 44.8068 58.3881H43.1613ZM43.1613 57.9899H44.8068C45.4688 57.9899 46.0551 57.5348 46.0551 56.7573C46.0551 55.9039 45.4688 55.5057 44.8068 55.5057H43.1613V57.9899Z" fill="#221C35"/>
<path d="M53.9043 59.9242H53.4693L52.9586 58.6915H50.3107L49.8 59.9242H49.3461L51.3509 55.1075H51.8994L53.9043 59.9242ZM50.4809 58.3123H52.8073L51.6346 55.4867L50.4809 58.3123Z" fill="#221C35"/>
<path d="M58.0843 58.3881V59.9242H57.6682V55.1075H59.7298C60.6376 55.1075 61.4131 55.6195 61.4131 56.7573C61.4131 57.5537 60.9402 58.1037 60.2783 58.2933L61.6022 59.9242H61.0537L59.8243 58.3692C59.7865 58.3692 59.7676 58.3692 59.7298 58.3692H58.0843V58.3881ZM58.0843 57.9899H59.7298C60.4107 57.9899 60.9781 57.5348 60.9781 56.7573C60.9781 55.9039 60.3917 55.5057 59.7298 55.5057H58.0843V57.9899Z" fill="#221C35"/>
<path d="M66.7657 55.5057V59.9242H66.3496V55.5057H64.7041V55.1075H68.3923V55.5057H66.7657Z" fill="#221C35"/>
<path d="M74.6906 58.1985L72.629 55.7143V59.9242H72.2129V55.1075H72.6857L74.7473 57.6296L76.79 55.1075H77.2629V59.9242H76.8468V55.6953L74.8041 58.1985H74.6906Z" fill="#221C35"/>
<path d="M81.7265 59.9242V55.1075H85.1121V55.5057H82.1426V57.2503H84.7527V57.6486H82.1426V59.5449H85.2066V59.9242H81.7265Z" fill="#221C35"/>
<path d="M93.6611 59.9242H93.1694L89.7081 55.6953V59.9242H89.2731V55.1075H89.7649L93.2261 59.3363V55.1075H93.6611V59.9242Z" fill="#221C35"/>
<path d="M99.5244 55.5057V59.9242H99.0894V55.5057H97.4628V55.1075H101.151V55.5057H99.5244Z" fill="#221C35"/>
<path d="M105.728 57.5158C105.009 57.2693 104.555 56.9469 104.555 56.3211C104.555 55.5057 105.18 55.0316 106.239 55.0316C106.693 55.0316 107.203 55.1264 107.601 55.2971L107.544 55.6764C107.128 55.5057 106.636 55.4109 106.239 55.4109C105.463 55.4109 104.99 55.7522 104.99 56.3022C104.99 56.8142 105.444 56.9469 105.898 57.1176L106.693 57.402C107.563 57.7054 107.846 58.0657 107.846 58.6726C107.846 59.488 107.203 59.981 106.125 59.981C105.634 59.981 105.066 59.8483 104.574 59.6587L104.631 59.2415C105.104 59.469 105.671 59.6018 106.125 59.6018C106.958 59.6018 107.449 59.2604 107.449 58.6726C107.449 58.2743 107.222 58.0468 106.598 57.8192L105.728 57.5158Z" fill="#221C35"/>
<path d="M11.1213 32.5411L22.2426 21.7509V40.847H0V21.7509L11.1213 32.5411Z" fill="#6BDAD5"/>
<path d="M73.4612 22.0733H70.1513V40.8281H73.4612V22.0733Z" fill="#221C35"/>
<path d="M73.4612 0H70.1513V18.7547H73.4612V0Z" fill="#221C35"/>
<path d="M140 40.847H119.535L129.749 21.6751L140 40.847Z" fill="#A1A468"/>
<path d="M117.19 22.0733V40.847H98.541V21.7509L113.88 36.7509V22.0733H117.19Z" fill="#F3BD48"/>
<path d="M96.1956 40.847H75.7309L85.9444 21.6751L96.1956 40.847Z" fill="#007DA5"/>
<path d="M57.8195 40.847H48.4572V22.0923H57.8195C62.983 22.0923 67.1818 26.2832 67.1818 31.4791C67.1818 36.6372 62.983 40.847 57.8195 40.847Z" fill="#4C2F48"/>
<path d="M34.5744 40.847H43.9368V37.5284H36.8819L39.3596 35.4045C42.2724 32.9014 43.9557 29.2415 43.9557 25.3919V22.0733H34.5934C29.4299 22.0733 25.231 26.2642 25.231 31.4602C25.2121 36.6372 29.411 40.847 34.5744 40.847Z" fill="#F18A00"/>
</g>
<defs>
<clipPath id="clip0_164_1317">
<rect width="140" height="60" fill="white"/>
</clipPath>
</defs>
</svg>
