<svg width="81" height="87" viewBox="0 0 81 87" fill="none" xmlns="http://www.w3.org/2000/svg">
<path d="M80.9373 0H0.686523V87H80.9373V0Z" fill="black"/>
<path d="M12.1573 62.02C12.1573 62.4078 12.6517 62.5601 14.4653 62.5601C16.4604 62.5601 16.7124 62.4303 16.7124 62.1883C16.7124 61.9303 16.5759 61.8004 14.1764 61.7251C10.9407 61.6194 10.0804 61.0857 10.0804 59.9077C10.0804 58.6529 11.2232 57.999 14.3145 57.999C17.6048 57.999 18.64 58.4093 18.64 59.7331C18.64 59.8468 18.64 59.9606 18.632 60.0904C18.4041 60.076 17.9996 60.068 17.6112 60.068C17.2083 60.068 16.8039 60.076 16.5759 60.0904V59.9462C16.5759 59.5584 16.3015 59.4286 14.284 59.4286C12.4254 59.4286 12.1525 59.5423 12.1525 59.7715C12.1525 59.9991 12.297 60.0985 14.8489 60.2283C17.8728 60.3805 18.8005 60.8212 18.8005 62.0985C18.8005 63.4287 17.7428 64.0682 14.491 64.0682C11.1703 64.0682 10.0371 63.5136 10.0371 62.3566C10.0371 62.2203 10.0451 62.0745 10.0676 61.9238C10.334 61.9543 10.7369 61.9767 11.1189 61.9767C11.5073 61.9767 11.8732 61.9687 12.1621 61.9543V62.02H12.1573Z" fill="white"/>
<path d="M28.786 63.8831C28.8165 63.069 28.839 62.2789 28.847 61.3366C28.847 60.9487 28.8775 60.5305 28.9 60.1282L28.847 60.1138C28.656 60.4936 28.4442 60.8894 28.1841 61.2244L26.1731 63.8863H25.1298L22.8764 60.891C22.6244 60.5561 22.4045 60.1619 22.2135 59.7965L22.1605 59.8109C22.183 60.2067 22.2135 60.601 22.2215 61.0353C22.2295 62.0994 22.252 62.9889 22.2969 63.8863H20.2554C20.3003 63.0658 20.3164 62.2356 20.3164 61.0273C20.3164 59.7804 20.3019 58.9278 20.2778 58.1826H23.3386C23.7575 58.798 24.3819 59.7259 25.1667 60.859C25.3722 61.1475 25.5937 61.4744 25.8071 61.8094H25.8521C26.0575 61.4664 26.2549 61.1395 26.4459 60.859C27.1762 59.7724 27.8615 58.7836 28.274 58.1826H30.9769C30.9544 58.9278 30.9319 59.7788 30.9319 61.0273C30.9319 62.2356 30.94 63.0658 30.9929 63.8863H28.786V63.8831Z" fill="white"/>
<path d="M39.7858 63.8828C39.7167 63.7161 39.5338 63.3427 39.2834 62.8796C38.4921 62.8715 37.6912 62.8715 37.0829 62.8715C36.5276 62.8715 35.7122 62.8715 34.9434 62.8796C34.685 63.3123 34.4796 63.6777 34.3801 63.8828H31.8746C32.9628 62.3779 35.0734 59.1839 35.5678 58.1807H38.7361C39.2545 59.1839 41.3635 62.3395 42.4982 63.8828H39.7858ZM36.611 60.1487C36.3526 60.559 36.0557 61.0381 35.7652 61.5173C36.2451 61.5253 36.725 61.5253 37.0909 61.5253C37.4874 61.5253 38.0042 61.5253 38.5226 61.5173C38.2401 61.0301 37.9432 60.5445 37.6768 60.1327C37.4408 59.7753 37.2739 59.4788 37.1439 59.2432L36.611 60.1487Z" fill="white"/>
<path d="M49.8678 61.5484C51.2 61.6782 51.8099 61.8914 52.0539 62.7568C52.1903 63.2504 52.3123 63.6623 52.4118 63.8818H50.5163C50.1744 63.8818 50.1134 63.8065 49.9224 63.0613C49.7555 62.3914 49.5035 62.2696 48.1184 62.2696H45.393C45.4075 62.9154 45.438 63.4716 45.4845 63.8818H43.3065C43.321 63.0533 43.337 62.2552 43.337 61.0308C43.337 59.8224 43.329 59.0002 43.3065 58.1797H48.9722C51.0363 58.1797 52.0025 58.7198 52.0025 59.8753C52.0025 60.8561 51.3621 61.3577 49.871 61.518V61.5484H49.8678ZM48.3061 60.8497C49.5324 60.8497 49.9738 60.6445 49.9738 60.2262C49.9738 59.7935 49.5404 59.6477 48.3286 59.6477C47.7492 59.6477 46.1281 59.6557 45.3593 59.6781C45.3593 60.066 45.3593 60.4538 45.3674 60.8256C45.9163 60.8497 47.0799 60.8497 48.3061 60.8497Z" fill="white"/>
<path d="M60.9597 58.1797C60.9452 58.4008 60.9452 58.7342 60.9452 59.0307C60.9452 59.3192 60.9452 59.6765 60.9597 59.9201C59.902 59.8897 58.8507 59.8897 57.9358 59.8897C57.9358 61.7984 57.9439 63.4475 57.9663 63.8898C57.6855 63.8674 57.212 63.8674 56.8926 63.8674C56.5732 63.8674 56.1238 63.8674 55.8188 63.8898C55.8413 63.4491 55.8573 61.8064 55.8573 59.8897C54.9441 59.8897 53.8928 59.8897 52.8335 59.9201C52.8415 59.6765 52.8415 59.3272 52.8415 59.0307C52.8415 58.7342 52.8415 58.4073 52.8335 58.1797H60.9597Z" fill="white"/>
<path d="M14.8592 73.2637C11.3105 73.2637 9.85632 72.0009 9.85632 70.1386C9.85632 68.1994 11.4629 67.0439 14.8592 67.0439C18.2554 67.0439 19.862 68.1994 19.862 70.1386C19.862 72.0025 18.4078 73.2637 14.8592 73.2637ZM17.7225 70.1466C17.7225 69.2107 16.9842 68.6947 14.8592 68.6947C12.7341 68.6947 11.9958 69.2123 11.9958 70.1466C11.9958 71.0665 12.7261 71.6146 14.8592 71.6146C17.0002 71.6146 17.7225 71.0665 17.7225 70.1466Z" fill="white"/>
<path d="M27.7963 70.6714C29.1285 70.8013 29.7384 71.0144 29.9823 71.8798C30.1187 72.3734 30.2407 72.7853 30.3402 73.0049H28.4447C28.1028 73.0049 28.0419 72.9295 27.8509 72.1843C27.6839 71.5144 27.432 71.3926 26.0468 71.3926H23.3215C23.336 72.0385 23.3664 72.5946 23.413 73.0049H21.235C21.2494 72.1763 21.2655 71.3782 21.2655 70.1538C21.2655 68.9454 21.2575 68.1233 21.235 67.3027H26.9007C28.9647 67.3027 29.931 67.8428 29.931 68.9983C29.931 69.9791 29.2906 70.4807 27.7995 70.641V70.6714H27.7963ZM26.2346 69.9727C27.4608 69.9727 27.9022 69.7676 27.9022 69.3493C27.9022 68.9166 27.4689 68.7707 26.2571 68.7707C25.6777 68.7707 24.0566 68.7787 23.2878 68.8012C23.2878 69.189 23.2878 69.5769 23.2958 69.9487C23.8447 69.9727 25.01 69.9727 26.2346 69.9727Z" fill="white"/>
<path d="M38.4546 73.0058C38.3856 72.8392 38.2026 72.4658 37.9522 72.0026C37.1609 71.9946 36.36 71.9946 35.7517 71.9946C35.1964 71.9946 34.381 71.9946 33.6122 72.0026C33.3538 72.4353 33.1484 72.8007 33.0489 73.0058H30.5435C31.6317 71.501 33.7423 68.307 34.2366 67.3037H37.4049C37.9233 68.307 40.0323 71.4625 41.167 73.0058H38.4546ZM35.2799 69.2717C35.0214 69.682 34.7245 70.1612 34.434 70.6404C34.9139 70.6484 35.3938 70.6484 35.7598 70.6484C36.1562 70.6484 36.673 70.6484 37.1914 70.6404C36.9089 70.1532 36.612 69.6676 36.3456 69.2557C36.1096 68.8983 35.9427 68.6018 35.8127 68.3662L35.2799 69.2717Z" fill="white"/>
<path d="M51.139 67.3037C51.1166 68.0041 51.1085 68.9384 51.1085 70.1484C51.1085 71.4032 51.1085 72.2462 51.123 73.0075H48.953C48.5036 72.4978 46.1362 70.8856 44.8265 69.9737C44.5071 69.7461 44.1797 69.5169 43.9133 69.2749C43.9438 69.7317 43.9518 70.1868 43.9662 70.6516C43.9743 71.8295 43.9807 72.6581 44.0047 73.0091H42.0466C42.0466 72.2414 42.0691 71.3744 42.0691 70.158C42.0691 68.9496 42.0691 68.0826 42.0466 67.3069H44.5296C44.8105 67.6723 47.4234 69.5266 48.5887 70.3263C48.8631 70.509 49.1376 70.6532 49.343 70.8503C49.3125 70.432 49.2981 70.0298 49.2981 69.7173C49.2981 68.6611 49.2756 67.7108 49.2451 67.3069H51.139V67.3037Z" fill="white"/>
<path d="M57.5808 73.1886C54.3755 73.1886 52.5089 72.2687 52.5089 70.1164C52.5089 67.8503 54.451 67.1211 57.4668 67.1211C60.3446 67.1211 62.1262 67.5923 62.1262 69.2959C62.1262 69.3487 62.1262 69.4096 62.1181 69.4625C61.8902 69.4465 61.4858 69.4401 61.0974 69.4401C60.6784 69.4401 60.282 69.4481 60.0461 69.4625C60.0461 69.4321 60.0541 69.4016 60.0541 69.3712C60.0541 68.8391 59.3302 68.6708 57.4572 68.6708C55.4766 68.6708 54.6548 69.0747 54.6548 70.1533C54.6548 71.1341 55.4236 71.6581 57.5792 71.6581C59.1858 71.6581 59.8936 71.4145 60.099 70.8985C59.0413 70.8985 57.6161 70.9065 56.6723 70.9289C56.6803 70.8151 56.6803 70.5715 56.6803 70.4578C56.6803 70.2526 56.6803 70.0699 56.6723 69.9257C57.9066 69.9481 59.1697 69.9417 60.091 69.9417C60.6544 69.9417 61.3782 69.9497 62.1326 69.9257C62.2722 71.9786 61.7538 73.1886 57.5808 73.1886Z" fill="white"/>
<path d="M71.7656 67.3037C71.7576 67.4704 71.7511 67.7364 71.7511 67.9736C71.7511 68.2172 71.7511 68.4913 71.7656 68.6499C70.1814 68.6419 67.3181 68.6355 65.8944 68.6355V69.5105C67.5396 69.5105 70.4093 69.5105 71.6821 69.4881C71.6741 69.7846 71.6677 70.3936 71.6741 70.7125C70.4254 70.6981 67.5235 70.682 65.8944 70.682V71.5715C67.3181 71.5715 70.2809 71.5635 71.7656 71.5571C71.7511 71.7398 71.7511 72.0283 71.7511 72.2943C71.7511 72.5379 71.7511 72.8183 71.7656 73.0091H63.7164C63.7469 72.2334 63.7469 71.3744 63.7469 70.158C63.7469 68.9496 63.7469 68.0746 63.7164 67.3069H71.7656V67.3037Z" fill="white"/>
<path d="M19.6242 42.9023C19.1828 42.9023 18.7671 42.8527 18.3787 42.7501C17.0497 42.3975 16.1252 41.4343 15.6999 39.9615C12.3278 37.3717 10.3247 33.7145 10.0567 29.6551C9.76295 25.2222 11.522 20.8711 15.0097 17.403L15.2409 17.1738L15.3275 17.4863C16.6677 22.3455 23.6174 30.7609 30.8175 36.2466L30.9909 36.3781L30.8368 36.5319C26.7745 40.5737 22.6255 42.9023 19.6242 42.9023ZM15.0531 17.8982C11.7949 21.2509 10.1562 25.4049 10.4354 29.6294C10.6971 33.5991 12.6664 37.1746 15.9808 39.6987L16.0321 39.7372L16.0482 39.7981C16.4318 41.1875 17.2487 42.0578 18.475 42.3815C18.8377 42.4776 19.2293 42.5241 19.6434 42.5241C22.4939 42.5241 26.4712 40.2917 30.4131 36.4133C23.3687 31.0013 16.5987 22.8247 15.0531 17.8982Z" fill="white"/>
<path d="M18.6782 42.7971C15.0011 39.9957 11.4476 35.6814 10.7574 33.1781L11.1234 33.0771C11.7959 35.5131 15.2884 39.7377 18.9077 42.4958L18.6782 42.7971Z" fill="white"/>
<path d="M23.9998 41.5591C17.729 36.7817 11.6717 29.432 10.4984 25.1723L10.8644 25.0713C12.02 29.2621 18.0163 36.5236 24.2309 41.2578L23.9998 41.5591Z" fill="white"/>
<path d="M15.7945 40.0262C13.8428 39.2233 12.6069 37.7761 12.2201 35.8369C11.5107 32.2807 13.6855 27.5738 18.0367 23.2451L18.3047 23.5128C14.0434 27.7517 11.9087 32.3304 12.5925 35.7616C12.952 37.5694 14.1108 38.922 15.9389 39.6736L15.7945 40.0262Z" fill="white"/>
<path d="M15.1908 40.3176C15.0881 40.3176 15.003 40.2839 14.9404 40.2038C14.8104 40.0339 14.5921 39.7518 17.0478 36.9232C18.6191 35.1122 20.8918 32.7227 23.6171 30.0127L23.8852 30.2803C17.8166 36.3174 15.4636 39.2775 15.271 39.9265C15.3513 39.9041 15.5022 39.8432 15.7702 39.6877L15.9612 40.0147C15.6803 40.1765 15.401 40.3176 15.1908 40.3176Z" fill="white"/>
<path d="M26.8677 43.5718C24.9095 43.5718 22.9691 43.2945 21.1297 42.732C20.1138 42.9516 19.1861 42.9644 18.3803 42.7512C17.0321 42.3939 16.1012 41.4083 15.6855 39.9018L15.5363 39.3601L15.9841 39.7015C17.5409 40.8874 19.2968 41.7672 21.1586 42.3458C23.8631 41.7304 27.2352 39.5845 30.572 36.2654L30.6892 36.1484L30.8208 36.2494C33.8463 38.554 36.0163 39.7063 37.5474 40.248C38.8748 39.4498 40.1171 38.4931 41.2342 37.3809L41.4653 37.1517L41.552 37.4642C42.1089 39.4851 41.5648 40.3569 41.0095 40.7303C40.2792 41.2223 39.1011 41.1855 37.5876 40.663C34.3182 42.5862 30.5608 43.5718 26.8677 43.5718ZM21.8488 42.5477C26.8195 43.8811 32.4579 43.1471 37.1237 40.4948C35.347 39.7992 33.1593 38.4979 30.7197 36.6517C27.6236 39.7047 24.4842 41.7608 21.8488 42.5477ZM16.2376 40.3585C16.671 41.4259 17.4221 42.107 18.4766 42.3859C19.0464 42.5365 19.682 42.567 20.3738 42.4836C18.9052 41.9644 17.512 41.2576 16.2376 40.3585ZM38.0177 40.4018C39.8041 40.9339 40.5809 40.5621 40.7944 40.4178C41.5295 39.9226 41.4797 38.8216 41.2631 37.8809C40.2647 38.8408 39.1749 39.6822 38.0177 40.4018Z" fill="white"/>
<path d="M23.3319 45.0972C22.2919 45.0972 20.6355 44.2894 18.6774 42.7974L18.9069 42.4961C21.6932 44.6196 23.3014 44.9545 23.8327 44.5971C24.2002 44.3487 24.1216 43.7333 23.9916 43.2605L24.3575 43.1596C24.6544 44.2333 24.3511 44.7045 24.0461 44.9113C23.86 45.0363 23.6192 45.0972 23.3319 45.0972Z" fill="white"/>
<path d="M31.8673 45.4727C30.1323 45.4727 27.3315 44.0961 23.9995 41.5591L24.229 41.2578C28.1998 44.282 31.5704 45.6955 32.8127 44.8557C33.5076 44.3877 33.3728 43.2739 33.1385 42.4213L33.5044 42.3204C33.9891 44.08 33.5124 44.8413 33.0261 45.1698C32.7244 45.3733 32.3344 45.4727 31.8673 45.4727Z" fill="white"/>
<path d="M25.8909 45.4168C25.4993 45.4168 25.1077 45.3992 24.7193 45.3623C21.0711 45.0226 17.8723 43.1042 15.7119 39.9599L16.0249 39.7451C18.121 42.7949 21.2219 44.6556 24.7562 44.9841C28.9324 45.3735 33.3414 43.5914 36.8548 40.0961L37.1228 40.3637C33.8534 43.6155 29.8184 45.4168 25.8909 45.4168Z" fill="white"/>
<path d="M28.9194 45.7039C28.8488 45.7039 28.7781 45.7039 28.7075 45.7023C23.8186 45.6446 19.209 43.6125 15.731 39.981L16.0054 39.7197C19.4129 43.2759 23.9262 45.2664 28.7139 45.3241C28.7829 45.3241 28.852 45.3257 28.9226 45.3257C33.3765 45.3257 37.5447 43.6157 40.6809 40.4954L40.949 40.763C37.7373 43.9555 33.4744 45.7039 28.9194 45.7039Z" fill="white"/>
<path d="M26.8676 43.568C22.8486 43.568 18.9035 42.3997 15.7512 39.9989L15.6999 39.9605L15.6838 39.8996C14.318 34.9475 18.7992 25.3558 25.6751 18.5174L25.7922 18.4004L25.9238 18.5014C33.1817 24.0304 40.1908 32.5355 41.5503 37.462L41.5792 37.5678L41.5005 37.6463C37.5811 41.5439 32.1593 43.568 26.8676 43.568ZM16.0321 39.7377C23.1632 45.1257 34.3935 44.1017 41.1538 37.4572C39.751 32.6125 32.9265 24.3509 25.8259 18.9036C19.1314 25.6186 14.7609 34.9138 16.0321 39.7377Z" fill="white"/>
<path d="M23.9922 43.259C23.3197 40.823 19.8288 36.5985 16.2079 33.8404L16.4374 33.5391C20.1145 36.3404 23.6664 40.6547 24.3582 43.158L23.9922 43.259Z" fill="white"/>
<path d="M33.1409 42.4185C31.9853 38.2276 25.9889 30.9661 19.7743 26.232L20.0038 25.9307C26.2746 30.7081 32.3303 38.0577 33.5052 42.3175L33.1409 42.4185Z" fill="white"/>
<path d="M19.705 40.7144C18.2589 40.7144 16.9331 40.4916 15.7952 40.0236L15.9396 39.6743C21.4384 41.934 31.4264 38.2832 38.2092 31.5361L38.4772 31.8038C32.9881 37.2639 25.4044 40.7144 19.705 40.7144Z" fill="white"/>
<path d="M15.9626 40.0121L15.7716 39.6851C18.2433 38.2476 25.8046 31.555 32.6275 24.7695L32.8955 25.0372C26.0533 31.8435 18.4584 38.5617 15.9626 40.0121Z" fill="white"/>
<path d="M16.1973 40.343L15.7495 40.0016C12.3484 37.4102 10.3261 33.7353 10.0565 29.6567C9.76596 25.2575 11.4962 20.9384 14.9309 17.4815C14.4221 15.536 14.9566 14.6898 15.5023 14.3212C17.1394 13.217 21.0348 14.7795 25.9204 18.5024L26.0938 18.6338L25.9397 18.7877C19.1521 25.5411 14.7142 34.9678 16.0464 39.8013L16.1973 40.343ZM16.8409 14.3741C16.1876 14.3741 15.8474 14.5471 15.7158 14.6353C14.8956 15.1882 15.0513 16.4911 15.3257 17.488L15.3546 17.5937L15.276 17.6723C11.8685 21.0634 10.148 25.3104 10.4336 29.631C10.684 33.4292 12.4993 36.8685 15.5601 39.3702C14.6372 34.3283 18.9675 25.2623 25.5176 18.6723C20.7748 15.0872 18.165 14.3741 16.8409 14.3741Z" fill="white"/>
<path d="M16.2066 33.841C13.4203 31.7191 11.8121 31.3826 11.2808 31.7399C10.9133 31.9883 10.9919 32.6038 11.1219 33.0765L10.756 33.1775C10.4591 32.1037 10.7624 31.6326 11.0674 31.4258C11.9309 30.8441 13.9371 31.6342 16.4362 33.5397L16.2066 33.841Z" fill="white"/>
<path d="M19.7735 26.2358C15.8027 23.2117 12.4354 21.7982 11.1899 22.638C10.4949 23.1059 10.6298 24.2197 10.8641 25.0723L10.4981 25.1733C10.0134 23.4136 10.4901 22.6524 10.978 22.3238C12.4017 21.3639 15.777 22.7133 20.0047 25.9345L19.7735 26.2358Z" fill="white"/>
<path d="M15.7099 39.96C10.8467 32.8844 12.4983 21.549 19.3902 14.6914L19.6583 14.959C12.8883 21.6933 11.2576 32.8123 16.0229 39.7452L15.7099 39.96Z" fill="white"/>
<path d="M15.7301 39.9823C8.73542 32.684 8.66319 21.1579 15.5664 14.2891L15.8344 14.5567C9.07568 21.2797 9.15112 32.5686 16.0045 39.7195L15.7301 39.9823Z" fill="white"/>
<path d="M30.7192 36.6503L30.5876 36.5493C23.3297 31.0203 16.3206 22.5152 14.9611 17.5887L14.9323 17.4829L15.0109 17.4044C21.906 10.5452 33.4573 9.48905 40.7586 15.0518L40.8099 15.0902L40.826 15.1511C42.1918 20.1032 37.7106 29.6949 30.8364 36.5317L30.7192 36.6503ZM15.356 17.5951C16.7588 22.4398 23.5833 30.7014 30.6855 36.1487C37.3784 29.4337 41.7489 20.1385 40.4761 15.3146C33.345 9.92657 22.1163 10.9506 15.356 17.5951Z" fill="white"/>
<path d="M36.5052 29.1186C30.2344 24.3412 24.1787 16.9916 23.0038 12.7318L23.3697 12.6309C24.5253 16.8217 30.5217 24.0832 36.7363 28.8158L36.5052 29.1186Z" fill="white"/>
<path d="M40.0716 21.5148C36.3945 18.7134 32.841 14.3976 32.1509 11.8959L32.5168 11.7949C33.1893 14.2309 36.6802 18.4554 40.3012 21.2135L40.0716 21.5148Z" fill="white"/>
<path d="M18.3028 23.5163L18.0348 23.2486C24.9155 16.4038 35.0897 12.7178 40.7153 15.0304L40.5708 15.3814C35.0736 13.1201 25.084 16.7692 18.3028 23.5163Z" fill="white"/>
<path d="M23.8851 30.282L23.6171 30.0143C30.4576 23.2096 38.0526 16.4914 40.5484 15.041L40.7394 15.368C38.266 16.8055 30.7064 23.4949 23.8851 30.282Z" fill="white"/>
<path d="M39.6771 41.0792C37.6773 41.0792 34.4399 39.4862 30.5863 36.5518L30.413 36.4204L30.567 36.2666C37.3547 29.5147 41.7925 20.0881 40.4588 15.2546L40.3095 14.7129L40.7573 15.0542C44.1583 17.6457 46.1806 21.3205 46.4503 25.3992C46.7408 29.7984 45.0106 34.1175 41.5758 37.5727C42.0846 39.5183 41.5502 40.3645 41.0045 40.7331C40.6594 40.9655 40.2132 41.0792 39.6771 41.0792ZM30.9908 36.3804C38.0769 41.7331 40.3978 40.6834 40.7942 40.4174C41.6144 39.8645 41.4587 38.5615 41.1842 37.5647L41.1553 37.4589L41.234 37.3804C44.6414 33.9908 46.3604 29.7439 46.0747 25.4232C45.8243 21.625 44.009 18.1858 40.9483 15.6841C41.8712 20.7275 37.5408 29.792 30.9908 36.3804Z" fill="white"/>
<path d="M44.3743 33.0313C42.6392 33.0313 39.8385 31.6547 36.5065 29.1177L36.736 28.8164C40.7068 31.8406 44.0757 33.2541 45.3196 32.4143C46.0146 31.9463 45.8798 30.8325 45.6454 29.9799L46.0114 29.8789C46.4961 31.6386 46.0194 32.3999 45.5331 32.7284C45.2313 32.9303 44.8413 33.0313 44.3743 33.0313Z" fill="white"/>
<path d="M44.7263 23.8149C43.6863 23.8149 42.0299 23.0072 40.0718 21.5152L40.3013 21.2139C43.0876 23.3357 44.6958 23.6723 45.2271 23.3149C45.5946 23.0665 45.516 22.4511 45.386 21.9783L45.7519 21.8774C46.0489 22.9511 45.7455 23.4223 45.4406 23.629C45.2528 23.7524 45.0136 23.8149 44.7263 23.8149Z" fill="white"/>
<path d="M37.1181 40.3636L36.8501 40.096C43.6201 33.3618 45.2508 22.2428 40.4855 15.3114L40.7984 15.0967C45.6616 22.1723 44.0117 33.506 37.1181 40.3636Z" fill="white"/>
<path d="M40.9451 40.7613L40.6771 40.4937C47.4342 33.7707 47.3588 22.4834 40.5054 15.3325L40.7798 15.0713C47.7745 22.3696 47.8483 33.8941 40.9451 40.7613Z" fill="white"/>
<path d="M41.2687 37.8772L41.182 37.5647C39.8418 32.7055 32.8921 24.2902 25.692 18.8044L25.5187 18.673L25.6728 18.5191C30.3321 13.8843 35.1054 11.5012 38.1293 12.3026C39.4582 12.6551 40.3843 13.6183 40.8081 15.0911C44.1802 17.681 46.1833 21.3381 46.4513 25.3976C46.7434 29.8288 44.9859 34.18 41.4998 37.648L41.2687 37.8772ZM26.0949 18.6345C33.1393 24.0498 39.9109 32.2248 41.4565 37.1528C44.7147 33.8017 46.3518 29.6477 46.0725 25.4232C45.8093 21.4535 43.8415 17.8781 40.5272 15.3539L40.4758 15.3155L40.4598 15.2546C40.0762 13.8651 39.2592 12.9949 38.033 12.6712C35.1696 11.9099 30.6098 14.1936 26.0949 18.6345Z" fill="white"/>
<path d="M45.645 29.98C44.4894 25.7891 38.4931 18.5276 32.2784 13.7935L32.508 13.4922C38.7788 18.2696 44.8345 25.6192 46.0094 29.879L45.645 29.98Z" fill="white"/>
<path d="M45.3854 21.9758C44.7129 19.5398 41.2204 15.3153 37.6011 12.5572L37.8306 12.2559C41.5077 15.0572 45.0612 19.3715 45.7513 21.8748L45.3854 21.9758Z" fill="white"/>
<path d="M38.4745 31.8052L38.2064 31.5376C42.4661 27.3002 44.6008 22.7215 43.9171 19.2903C43.5575 17.4826 42.4003 16.1299 40.5706 15.3783L40.7151 15.0273C42.6668 15.8303 43.9026 17.2774 44.2894 19.2166C44.9988 22.7712 42.824 27.4781 38.4745 31.8052Z" fill="white"/>
<path d="M32.8932 25.0389L32.6251 24.7713C38.6921 18.7358 41.045 15.7758 41.2376 15.1267C41.1574 15.1491 41.0065 15.21 40.7385 15.3655L40.5475 15.0386C40.9664 14.795 41.3789 14.6043 41.5683 14.8495C41.6983 15.0193 41.9166 15.3014 39.4609 18.13C37.8896 19.9394 35.6185 22.3289 32.8932 25.0389Z" fill="white"/>
<path d="M25.824 18.9036L25.6924 18.8026C22.6685 16.4981 20.4969 15.3458 18.9657 14.8041C17.6384 15.6022 16.3961 16.559 15.2774 17.6712L15.0463 17.9003L14.9596 17.5878C14.4027 15.5669 14.9468 14.6951 15.5021 14.3217C16.2324 13.8297 17.4105 13.8665 18.924 14.389C23.9204 11.4498 30.0692 10.6998 35.3786 12.3216C36.3962 12.1021 37.3239 12.0892 38.128 12.3024C39.4762 12.6598 40.4087 13.6454 40.8244 15.1519L40.9737 15.6935L40.5259 15.3522C38.969 14.1662 37.2132 13.2864 35.3513 12.7079C32.6469 13.3233 29.2747 15.4692 25.9395 18.7866L25.824 18.9036ZM19.3862 14.5589C21.163 15.2544 23.3506 16.5557 25.7903 18.402C28.8847 15.349 32.0241 13.2928 34.6596 12.5075C29.6904 11.1741 24.052 11.9081 19.3862 14.5589ZM16.8407 14.373C16.1875 14.373 15.8472 14.5461 15.7156 14.6342C14.9805 15.1294 15.0302 16.2304 15.2469 17.1712C16.2452 16.2112 17.3366 15.3714 18.4939 14.6502C17.7989 14.4435 17.2564 14.373 16.8407 14.373ZM36.1362 12.57C37.6032 13.0893 38.9963 13.796 40.2723 14.6951C39.839 13.6278 39.0878 12.9466 38.0333 12.6678C37.4635 12.5171 36.8263 12.4867 36.1362 12.57Z" fill="white"/>
<path d="M32.278 13.7944C28.3072 10.7703 24.9366 9.35677 23.6943 10.1965C22.9994 10.6645 23.1342 11.7783 23.3685 12.6309L23.0026 12.7319C22.5179 10.9722 22.9946 10.211 23.4809 9.88243C24.9045 8.92246 28.2799 10.2719 32.5075 13.4931L32.278 13.7944Z" fill="white"/>
<path d="M37.6014 12.5555C34.8151 10.4337 33.2053 10.0971 32.6756 10.4561C32.3081 10.7045 32.3867 11.3199 32.5167 11.7927L32.1508 11.8937C31.8538 10.8199 32.1572 10.3487 32.4621 10.142C33.324 9.56184 35.3303 10.3503 37.8309 12.2558L37.6014 12.5555Z" fill="white"/>
<path d="M40.4874 15.3109C38.3913 12.2612 35.2904 10.4005 31.7562 10.072C27.5783 9.68414 23.1709 11.4647 19.6592 14.96L19.3911 14.6923C22.9847 11.1185 27.5045 9.2979 31.7915 9.69536C35.4397 10.0351 38.6385 11.9535 40.8004 15.0978L40.4874 15.3109Z" fill="white"/>
<path d="M40.5075 15.3338C37.0984 11.7776 32.5867 9.78713 27.799 9.72943C23.2584 9.67815 19.0179 11.3897 15.8336 14.5581L15.5656 14.2905C18.7724 11.0997 23.0353 9.34961 27.5903 9.34961C27.6609 9.34961 27.7316 9.34961 27.8022 9.35121C32.6911 9.40891 37.3007 11.441 40.7803 15.0726L40.5075 15.3338Z" fill="white"/>
<path d="M28.1979 45.8996C27.8688 45.8996 27.5222 45.8851 27.2605 45.8659C26.8208 45.8354 26.2061 45.7713 25.3827 45.6688C24.898 45.6079 24.2945 45.4749 23.9253 45.3803C23.3186 45.2232 22.5065 44.978 21.903 44.7681C21.3814 44.587 20.245 44.1142 19.2596 43.5501C18.8037 43.2905 17.5936 42.5982 16.3529 41.5372C15.7285 41.0035 14.7816 40.1445 13.7672 38.8512C13.4318 38.4249 13.1734 38.0515 13.1718 38.0483C12.9117 37.6717 12.9117 37.6717 12.5153 37.0419C12.2087 36.5547 11.8861 35.9152 11.7481 35.6428C11.5427 35.2341 11.326 34.7501 11.1944 34.4039C11.0965 34.1475 10.9954 33.8607 10.8975 33.5754C10.7562 33.1972 10.631 32.8109 10.5235 32.4199C10.3774 31.8526 10.1864 31.1041 10.1078 30.532C10.034 29.9999 9.9521 29.3926 9.91358 28.9246C9.89753 28.7387 9.84777 28.0912 9.86061 27.5848L9.86222 27.5047C9.87345 27.0383 9.8879 26.4581 9.9216 26.011C9.9521 25.62 10.0163 25.0815 10.0853 24.6408C10.3469 22.9933 10.7691 21.8025 10.7867 21.7529C10.9119 21.4051 11.143 20.756 11.3372 20.2977C11.4785 19.9643 11.708 19.4803 11.9519 19.0044C12.3131 18.2976 12.8684 17.4049 13.3323 16.7799C13.9261 15.9818 14.6853 15.0924 15.2679 14.517C16.1507 13.6452 16.4957 13.384 17.6449 12.5185C18.0446 12.2173 18.6095 11.8775 18.9979 11.6499C19.3527 11.4416 19.8534 11.1756 20.2723 10.9736C20.6768 10.7781 21.253 10.5313 21.7393 10.3454C22.0154 10.2396 22.3492 10.1322 22.6734 10.0297C22.8147 9.9848 22.9511 9.94153 23.0731 9.89986C23.5273 9.74922 24.1276 9.62101 24.654 9.51363C24.9397 9.45594 25.2832 9.40465 25.6154 9.35658C25.7566 9.33574 25.8915 9.31651 26.0151 9.29728C26.5206 9.21715 27.1883 9.1867 27.7148 9.17067C28.1658 9.15465 28.6938 9.15945 29.0582 9.18029C29.5846 9.21074 30.3181 9.27965 30.9232 9.35658C31.7819 9.46555 32.5491 9.66749 33.3596 9.88224C33.9647 10.0425 34.7672 10.3246 35.3562 10.5826C35.9019 10.823 36.3096 11.0105 36.6001 11.1595C36.9677 11.347 37.4588 11.6211 37.8215 11.8422C38.1987 12.0714 38.6304 12.3535 38.921 12.5618C39.3543 12.8743 39.5004 12.9785 40.1504 13.5154C40.221 13.5747 40.5918 13.8872 41.0781 14.3568C41.4488 14.7157 41.7586 15.0539 41.9079 15.2158C42.0876 15.4129 42.4889 15.8776 42.7409 16.2046C43.1486 16.7302 43.2208 16.8392 43.6268 17.4354C43.9318 17.8857 44.4711 18.8088 44.7632 19.4226C44.9879 19.8938 45.3635 20.6839 45.67 21.6198C46.0039 22.6359 46.2334 23.5302 46.3538 24.277C46.4757 25.0334 46.6138 25.8876 46.6395 27.1136C46.6683 28.4582 46.548 29.5192 46.4741 30.032C46.3987 30.5561 46.2591 31.5337 45.8434 32.9071C45.593 33.7357 45.1404 34.7998 44.8049 35.5466C44.6508 35.8896 44.4037 36.3463 44.049 36.9425C43.8949 37.2037 43.691 37.505 43.4952 37.7951C43.4102 37.9233 43.3267 38.0451 43.2529 38.1589C42.9768 38.5804 42.5563 39.0948 42.2546 39.4362L42.2 39.4987C41.8373 39.909 41.3879 40.4186 40.9946 40.7712C40.9064 40.8513 40.81 40.9378 40.7105 41.0292C40.4409 41.2744 40.1359 41.5516 39.8791 41.76C39.5244 42.0485 39.0012 42.4619 38.5743 42.7328L38.2806 42.9203C37.9756 43.1158 37.6289 43.337 37.3432 43.4988C36.9018 43.7472 36.324 44.0421 35.9067 44.2328C34.4317 44.9059 33.159 45.2329 33.0193 45.2681C32.151 45.4845 31.0147 45.6784 30.3036 45.7778C29.9168 45.8322 29.4321 45.8515 29.0036 45.8691C28.8623 45.8755 28.7275 45.8803 28.6023 45.8867C28.4787 45.8963 28.3391 45.8996 28.1979 45.8996ZM13.6854 38.1124C13.7865 38.2502 13.9181 38.4281 14.0657 38.6156C15.0609 39.8833 15.9885 40.7247 16.6001 41.2487C17.8134 42.2872 19.0012 42.9652 19.4473 43.22C20.412 43.7713 21.5178 44.2328 22.0282 44.4091C22.6221 44.6143 23.423 44.8562 24.0216 45.0117C24.4935 45.1335 25.0456 45.2441 25.4308 45.2922C26.2462 45.3947 26.8545 45.4588 27.2878 45.4877C27.6506 45.5133 28.1818 45.5326 28.5863 45.5117C28.7131 45.5053 28.8495 45.4989 28.9907 45.4941C29.4097 45.4765 29.8863 45.4572 30.2539 45.4059C30.9553 45.3082 32.0772 45.1175 32.931 44.9043C33.0675 44.8707 34.3098 44.5517 35.7543 43.8915C36.1635 43.704 36.7301 43.4155 37.1619 43.1719C37.4395 43.0164 37.7798 42.7969 38.0815 42.6046L38.3769 42.4155C38.7877 42.1558 39.2981 41.7504 39.6464 41.4699C39.8952 41.2696 40.1953 40.9955 40.4618 40.7535C40.5629 40.6622 40.6592 40.574 40.7491 40.4939C41.1262 40.1558 41.5692 39.6557 41.9239 39.2519L41.9785 39.1894C42.2706 38.8576 42.6783 38.3592 42.9431 37.9538C43.0169 37.84 43.102 37.715 43.1887 37.5868C43.3813 37.2999 43.5803 37.0034 43.7296 36.7518C44.0762 36.1684 44.317 35.7245 44.4647 35.3944C44.7953 34.6572 45.2399 33.609 45.4854 32.7997C45.8931 31.4535 46.0312 30.4952 46.105 29.9807C46.1772 29.4791 46.2944 28.4406 46.2655 27.1232C46.2398 25.9245 46.105 25.0831 45.9846 24.3411C45.8674 23.6119 45.6411 22.7385 45.3137 21.74C45.0136 20.8281 44.6444 20.0509 44.4245 19.5877C44.1388 18.9883 43.614 18.0893 43.3203 17.6566C42.9158 17.062 42.8452 16.9562 42.444 16.4386C42.1968 16.1196 41.8068 15.6661 41.6318 15.4738C41.4858 15.3135 41.1808 14.9818 40.8181 14.6292C40.3414 14.1676 39.9803 13.8648 39.9128 13.8087C39.2724 13.2798 39.128 13.1756 38.7027 12.8695C38.4202 12.666 37.9981 12.3903 37.6289 12.166C37.2742 11.9496 36.7927 11.682 36.4316 11.4977C36.1475 11.3518 35.7478 11.1675 35.2086 10.9304C34.6356 10.6787 33.8555 10.4047 33.2665 10.2492C32.4688 10.0377 31.7145 9.83897 30.8798 9.73319C30.2812 9.65787 29.5605 9.58896 29.0405 9.55851C28.6858 9.53767 28.1722 9.53447 27.7324 9.54889C27.2172 9.56652 26.564 9.59537 26.0793 9.67229C25.9557 9.69152 25.8176 9.71236 25.6764 9.73319C25.349 9.78127 25.0103 9.83095 24.7359 9.88704C24.3635 9.96397 23.6701 10.105 23.1983 10.2621C23.0731 10.3037 22.9366 10.347 22.7938 10.3935C22.4744 10.496 22.1438 10.6002 21.8789 10.7028C21.4023 10.8855 20.8373 11.1275 20.4408 11.3182C20.0364 11.5137 19.534 11.7781 19.1938 11.9785C18.8118 12.2028 18.2612 12.5346 17.8776 12.823C16.7445 13.6772 16.4026 13.9353 15.5391 14.7879C14.9694 15.352 14.223 16.2222 13.6404 17.0075C13.1878 17.6165 12.6469 18.4899 12.2938 19.179C12.0531 19.6486 11.8284 20.123 11.6903 20.4483C11.5009 20.8971 11.2714 21.5381 11.1478 21.8827C11.1302 21.9307 10.7209 23.0894 10.4641 24.7017C10.3967 25.1264 10.3325 25.6649 10.3036 26.0415C10.2699 26.479 10.2571 27.0543 10.2458 27.5159L10.2442 27.596C10.2362 27.9245 10.2554 28.4101 10.2956 28.8941C10.3373 29.3893 10.432 30.0737 10.4882 30.4807C10.5636 31.032 10.7514 31.7676 10.8894 32.3061C10.891 32.3141 10.8926 32.3205 10.8958 32.3286C10.9873 32.625 11.1141 33.0209 11.2489 33.4199C12.1494 35.8415 13.7399 37.9698 15.8987 39.6381C15.9276 39.6605 15.9548 39.6814 15.9837 39.7038L15.7542 40.0051C14.995 39.425 14.3049 38.7935 13.6854 38.1124Z" fill="white"/>
</svg>
