<svg width="44" height="54" viewBox="0 0 44 54" fill="none" xmlns="http://www.w3.org/2000/svg">
<path d="M44 21.6C44 37.8 22 54 22 54C22 54 0 37.8 0 21.6C0 15.8713 2.31785 10.3773 6.44365 6.32649C10.5695 2.27571 16.1652 0 22 0C27.8348 0 33.4305 2.27571 37.5564 6.32649C41.6822 10.3773 44 15.8713 44 21.6Z" fill="#221C35"/>
<path fill-rule="evenodd" clip-rule="evenodd" d="M16.4338 11.6352C13.067 12.0635 10.6122 15.4365 11.0577 19.257C11.4178 22.3444 13.5495 24.6734 16.1312 25.2273V22.832L13.8117 20.3801C13.622 20.1795 13.6308 19.863 13.8314 19.6733C14.032 19.4835 14.3484 19.4923 14.5382 19.6929L16.1312 21.3768V21.3241V16.0236C16.1312 15.7475 16.355 15.5236 16.6312 15.5236C16.9073 15.5236 17.1312 15.7475 17.1312 16.0236V20.0723L19.7104 17.3584C19.9007 17.1582 20.2172 17.1502 20.4173 17.3404C20.6175 17.5307 20.6255 17.8471 20.4353 18.0473L17.1312 21.5238V22.6329V25.3503C17.4274 25.3601 17.727 25.3465 18.0284 25.3082C18.4124 25.2593 18.7833 25.1728 19.1388 25.0523C18.8837 24.7118 18.7325 24.2889 18.7325 23.8307C18.7325 22.7047 19.6454 21.7919 20.7714 21.7919H22.7729C22.7741 21.7258 22.7885 21.6588 22.8174 21.5945C23.3395 20.432 23.5677 19.086 23.4045 17.6863C22.9589 13.8659 19.8006 11.2069 16.4338 11.6352ZM23.8165 21.7919C24.3492 20.5125 24.5713 19.0593 24.3965 17.5601C23.8974 13.2806 20.318 10.133 16.318 10.6419C12.318 11.1507 9.56665 15.1037 10.0657 19.3832C10.479 22.9266 13.0041 25.6941 16.1312 26.2523V30.7133C15.9233 30.7312 15.6881 30.7694 15.4478 30.8502C15.1045 30.4676 14.5131 30.0532 13.6879 30.0532C13.0131 30.0532 12.4212 30.2956 11.9978 30.726C11.5757 31.155 11.3483 31.7428 11.3483 32.3855C11.3483 32.8419 11.4324 33.2514 11.5444 33.5869H10.8629C10.5867 33.5869 10.3629 33.8108 10.3629 34.0869C10.3629 34.3631 10.5867 34.5869 10.8629 34.5869H12.3389H18.4707H19.6927L21.6939 34.5869L27.5415 34.5869L29.5705 34.5869L29.9329 34.5869H32.3244H33.5078C33.784 34.5869 34.0078 34.3631 34.0078 34.0869C34.0078 33.8108 33.784 33.5869 33.5078 33.5869H32.3244H30.9742C31.0266 33.4351 31.0551 33.272 31.0551 33.1024V30.999H31.4775C32.6036 30.999 33.5164 30.0862 33.5164 28.9602C33.5164 27.8342 32.6036 26.9214 31.4775 26.9214H30.0704V25.8696H30.493C31.6191 25.8696 32.5319 24.9568 32.5319 23.8307C32.5319 22.7047 31.619 21.7919 30.493 21.7919H23.8165ZM29.0704 25.8696V26.9214H22.1939V25.8696H29.0704ZM21.1939 25.8696V26.9214H19.7868C18.6607 26.9214 17.7479 27.8342 17.7479 28.9602C17.7479 30.0862 18.6607 30.999 19.7868 30.999H20.2094V33.1024C20.2094 33.272 20.2378 33.4351 20.2902 33.5869H19.6927H19.2402L19.2403 33.5767C19.2403 32.6977 18.9569 31.9724 18.468 31.4635C18.1002 31.0808 17.6338 30.8394 17.1312 30.744V26.3534C17.4647 26.3616 17.8029 26.3448 18.1442 26.3014C18.7556 26.2237 19.3398 26.0643 19.8886 25.8345C19.9468 25.8101 19.9981 25.7761 20.0414 25.735C20.2681 25.8219 20.5142 25.8696 20.7714 25.8696H21.1939ZM27.5415 33.5869H28.1668C28.1144 33.4351 28.0859 33.272 28.0859 33.1024V30.999H23.1785V33.1024C23.1785 33.272 23.15 33.4351 23.0976 33.5869H27.5415ZM29.0859 33.1024C29.0859 33.37 29.3029 33.5869 29.5705 33.5869C29.8381 33.5869 30.0551 33.37 30.0551 33.1024V31.3387H29.0859V33.1024ZM21.6939 33.5869C21.4263 33.5869 21.2094 33.37 21.2094 33.1024V31.3387H22.1785V33.1024C22.1785 33.37 21.9615 33.5869 21.6939 33.5869ZM12.622 33.5869H18.2404L18.2403 33.5767C18.2403 32.9169 18.0314 32.4525 17.7469 32.1564C17.4609 31.8587 17.067 31.6973 16.6312 31.6973C16.2685 31.6973 15.8745 31.7056 15.5313 31.9029L15.0846 32.1595L14.8414 31.7053C14.7337 31.5043 14.3288 31.0532 13.6879 31.0532C13.2589 31.0532 12.931 31.2033 12.7106 31.4274C12.4888 31.6528 12.3483 31.9811 12.3483 32.3855C12.3483 32.9087 12.4994 33.3379 12.622 33.5869ZM19.7325 23.8307C19.7325 23.257 20.1976 22.7919 20.7714 22.7919H30.493C31.0668 22.7919 31.5319 23.257 31.5319 23.8307C31.5319 24.4045 31.0668 24.8696 30.493 24.8696H20.7714C20.1976 24.8696 19.7325 24.4045 19.7325 23.8307ZM19.7868 27.9214C19.213 27.9214 18.7479 28.3865 18.7479 28.9602C18.7479 29.5339 19.213 29.999 19.7868 29.999H31.4775C32.0513 29.999 32.5164 29.5339 32.5164 28.9602C32.5164 28.3865 32.0513 27.9214 31.4775 27.9214H19.7868Z" fill="#E3EBF3"/>
</svg>
