<svg width="44" height="54" viewBox="0 0 44 54" fill="none" xmlns="http://www.w3.org/2000/svg">
<path d="M44 21.6C44 37.8 22 54 22 54C22 54 0 37.8 0 21.6C0 15.8713 2.31785 10.3773 6.44365 6.32649C10.5695 2.27571 16.1652 0 22 0C27.8348 0 33.4305 2.27571 37.5564 6.32649C41.6822 10.3773 44 15.8713 44 21.6Z" fill="#221C35"/>
<path fill-rule="evenodd" clip-rule="evenodd" d="M22.0051 10L22.1572 10.0479L32.7662 13.3911L33.1159 13.5013V13.868V19.202C33.2699 19.3647 33.3892 19.5837 33.4374 19.8198C33.5025 20.1393 33.439 20.4813 33.2105 20.7837L33.9566 22.4555L34 22.5528V22.6593C34 22.8858 33.9349 23.2128 33.7262 23.4969C33.4992 23.8061 33.1284 24.026 32.6159 24.026C32.1005 24.026 31.7288 23.8006 31.5251 23.4546C31.3447 23.1482 31.3312 22.8077 31.3634 22.5872L31.3689 22.5494L31.38 22.513C31.4886 22.1581 31.7507 21.3722 32.0266 20.7541C31.8131 20.4458 31.7381 20.118 31.8041 19.7972C31.8547 19.5515 31.9795 19.3553 32.1159 19.2115V14.5422L29.5796 15.3119V20.059V20.2619L29.4382 20.4074C28.5132 21.3596 25.7946 23.1593 22.0069 23.1593C18.2178 23.1593 15.579 21.3582 14.6931 20.3981L14.5605 20.2545V20.059V15.2962L11.502 14.3454L9.99501 13.877L11.4969 13.3922L21.8533 10.049L22.0051 10ZM15.5605 15.607V19.855C16.4064 20.6713 18.7126 22.1593 22.0069 22.1593C25.3013 22.1593 27.6861 20.6711 28.5796 19.8478V15.6153L22.1521 17.5658L22.0051 17.6104L21.8585 17.5648L15.5605 15.607ZM29.3657 13.368L22.0087 11.0496L13.3059 13.859L15.2089 14.4505L22.0087 16.5643L28.9344 14.4626L29.2463 14.368H22.0069V13.368H29.3657ZM32.63 21.9366C32.5131 22.2565 32.4127 22.5593 32.3501 22.7606C32.3489 22.7843 32.3496 22.8136 32.3541 22.8445C32.3606 22.8894 32.3732 22.924 32.3869 22.9473C32.3987 22.9673 32.4121 22.981 32.4328 22.9924C32.4548 23.0044 32.508 23.026 32.6159 23.026C32.7229 23.026 32.788 23.0047 32.8268 22.985C32.8658 22.9653 32.8955 22.9386 32.9202 22.905C32.9558 22.8566 32.9782 22.7965 32.9899 22.7431L32.63 21.9366ZM12.7688 22.6452C13.2057 22.2844 13.6366 22.2831 13.7975 22.2831H13.9207L14.0297 22.3403C16.2185 23.4881 18.0312 24.33 19.6699 24.9989C20.2288 25.2271 20.7679 25.4353 21.295 25.6287C23.0275 26.2643 24.6344 26.7415 26.4077 27.2464C27.6 27.4337 28.3671 28.1074 28.7143 28.9928C29.0534 29.8577 28.9721 30.869 28.6094 31.7363C28.2457 32.606 27.573 33.3931 26.6502 33.7706C25.7079 34.1562 24.5789 34.0842 23.3898 33.3641C21.9339 32.4825 20.4926 31.7597 19.0703 31.1558C19.1462 31.3606 19.2538 31.5417 19.3664 31.6989C19.4576 31.8262 19.5417 31.9246 19.6187 32.0146C19.6429 32.0428 19.6663 32.0703 19.6891 32.0975C19.7113 32.1241 19.7369 32.1555 19.7601 32.1873C19.7789 32.2131 19.8178 32.268 19.8465 32.3378C19.8627 32.3772 19.9607 32.6213 19.7849 32.8556C19.6276 33.0654 19.3945 33.065 19.3563 33.0649H19.3546C19.2214 33.0649 19.0918 33.0282 19.0036 32.9989C18.9618 32.9851 18.9194 32.9695 18.8773 32.9529C18.8597 32.9785 18.8394 33.0038 18.8161 33.0282C18.7264 33.1218 18.6004 33.1902 18.451 33.2027C18.3143 33.2141 18.2006 33.1752 18.1242 33.1377L18.0841 33.1181L18.0481 33.0916C17.5028 32.6907 17.2328 32.0391 17.0972 31.4762C17.0683 31.3563 17.0445 31.2362 17.0252 31.1179C16.6769 31.5076 16.289 31.7575 15.9382 31.9096C15.6461 32.0362 15.3758 32.0969 15.1704 32.1137C15.0766 32.1214 14.9604 32.1231 14.8524 32.0983C14.8225 32.0914 14.781 32.0798 14.7354 32.059C14.695 32.0405 14.6175 31.9997 14.5487 31.9182C14.4686 31.8234 14.4061 31.6769 14.4339 31.5056C14.4369 31.4868 14.4409 31.4689 14.4456 31.4518C14.368 31.4285 14.2906 31.4051 14.2263 31.3841C14.1873 31.3713 14.1458 31.3571 14.1083 31.3423L14.1058 31.3413C14.0829 31.3324 14.0069 31.3026 13.9384 31.2503C13.9167 31.2338 13.8768 31.201 13.8383 31.1503C13.8017 31.1021 13.7365 30.9982 13.7348 30.8496C13.7328 30.6821 13.8115 30.5545 13.8912 30.4784C13.9604 30.4123 14.0315 30.3819 14.0654 30.3692C14.1342 30.3432 14.1954 30.3371 14.2178 30.335C14.2488 30.3321 14.2784 30.3314 14.3027 30.3314C14.5612 30.3314 14.9034 30.1952 15.2669 29.9615C15.3295 29.9213 15.3906 29.8796 15.4497 29.8372C13.9958 29.3872 12.5658 29.0298 11.1635 28.7194L10.9498 28.6721L10.8396 28.483C10.1796 27.3506 10.0783 26.378 10.2867 25.6033C10.491 24.8438 10.9782 24.3319 11.397 24.0856L11.6066 23.9623L11.833 24.0511L11.9293 24.0888C12.1362 23.3795 12.4298 22.925 12.7688 22.6452ZM12.8731 24.4252C14.1784 24.8459 15.8786 25.489 16.6323 25.7846L16.2672 26.7156C15.4266 26.3859 13.4303 25.6329 12.1376 25.2429L12.1182 25.2371L12.0994 25.2297L11.723 25.0821C11.5426 25.2441 11.3488 25.5044 11.2524 25.863C11.1346 26.3011 11.1484 26.9388 11.5994 27.792C13.223 28.1564 14.8954 28.5885 16.6047 29.1579C16.5147 27.9033 16.828 26.9558 17.337 26.2722C17.5919 25.9298 17.8889 25.6633 18.1933 25.4615C16.8461 24.8756 15.3737 24.171 13.685 23.2885C13.6062 23.2989 13.5112 23.329 13.4054 23.4163C13.2597 23.5366 13.0439 23.8091 12.8731 24.4252ZM19.4348 25.9829C19.046 26.0825 18.5253 26.3508 18.1391 26.8694C17.7467 27.3963 17.4571 28.2307 17.6508 29.5224C17.6984 29.5397 17.746 29.5572 17.7937 29.5748C17.6535 28.3766 18.0104 27.463 18.6153 26.8102C18.9134 26.4886 19.2612 26.2415 19.6168 26.0561C19.5564 26.0319 19.4957 26.0075 19.4348 25.9829ZM21.0693 26.6109C20.5286 26.7001 19.8296 26.9711 19.3488 27.49C18.8924 27.9824 18.5765 28.7572 18.8868 29.9972C20.0601 30.472 21.2477 31.023 22.4464 31.6715C22.2797 31.0681 22.273 30.5056 22.3315 30.0278C22.3827 29.61 22.4828 29.2605 22.5604 29.0145C22.3556 28.9349 22.084 28.8346 21.7837 28.7264C21.1632 28.5027 20.4336 28.2499 19.951 28.0853L20.2738 27.1389C20.7595 27.3045 21.495 27.5593 22.1227 27.7856C22.4361 27.8985 22.726 28.0055 22.9455 28.0913C23.0545 28.1339 23.1512 28.1732 23.2264 28.2065C23.2635 28.2229 23.3013 28.2405 23.3352 28.2582C23.3359 28.2586 23.3367 28.259 23.3376 28.2595C23.3565 28.2692 23.4303 28.3074 23.4936 28.3695C23.5963 28.4701 23.6309 28.5856 23.6433 28.6533C23.6558 28.7217 23.6531 28.78 23.6501 28.8147C23.6441 28.8834 23.6276 28.9478 23.6164 28.9889C23.6 29.0487 23.5745 29.1273 23.5495 29.2047C23.5399 29.2343 23.5304 29.2638 23.5214 29.2919C23.45 29.5169 23.3659 29.8077 23.3241 30.1493C23.2442 30.8025 23.3156 31.6551 23.9872 32.5557C24.9098 33.0889 25.6797 33.0872 26.2715 32.8451C26.8998 32.5881 27.4033 32.0286 27.6868 31.3505C27.9714 30.67 28.0085 29.9324 27.7833 29.3579C27.5706 28.8154 27.1058 28.3655 26.2432 28.2329C26.1449 28.2277 25.9587 28.2865 25.7239 28.5277C25.4945 28.7635 25.2874 29.1086 25.1666 29.4834C25.0451 29.8609 25.0259 30.2207 25.1101 30.499C25.1858 30.749 25.3521 30.9652 25.6951 31.0973C25.7801 31.1175 25.84 31.1031 25.8909 31.0758C25.9548 31.0415 26.0262 30.9728 26.0851 30.867C26.1438 30.7615 26.176 30.6434 26.1804 30.5428C26.185 30.4372 26.1585 30.395 26.1565 30.3923C25.9887 30.173 26.0305 29.8592 26.2498 29.6914C26.4691 29.5236 26.783 29.5654 26.9507 29.7847C27.1381 30.0297 27.1906 30.328 27.1794 30.5861C27.168 30.8492 27.0897 31.1181 26.959 31.3531C26.6998 31.8189 26.1481 32.263 25.4084 32.0558L25.3893 32.0505L25.3707 32.0437C24.7174 31.8035 24.3205 31.3423 24.1529 30.7886C23.9925 30.2582 24.0522 29.6816 24.2148 29.1768C24.3719 28.689 24.6389 28.2238 24.9675 27.872C23.6611 27.4895 22.4013 27.0957 21.0693 26.6109ZM22.8718 29.1444C22.8828 29.1501 22.8805 29.1497 22.8701 29.1435C22.8707 29.1438 22.8713 29.1441 22.8718 29.1444ZM16.2435 30.4909C16.0167 30.7334 15.776 30.8861 15.5666 30.9805C15.5623 30.9721 15.5579 30.9637 15.5531 30.9553C15.6422 30.9058 15.7274 30.8543 15.8076 30.8027C15.9624 30.7033 16.1091 30.5969 16.2435 30.4909ZM14.7938 31.56C14.7937 31.56 14.7922 31.5595 14.7895 31.5581C14.7925 31.5593 14.7939 31.56 14.7938 31.56ZM14.4661 30.4082C14.4663 30.4082 14.4692 30.4093 14.4742 30.4117C14.4684 30.4094 14.4659 30.4082 14.4661 30.4082Z" fill="#E3EBF3"/>
</svg>
