<svg width="44" height="54" viewBox="0 0 44 54" fill="none" xmlns="http://www.w3.org/2000/svg">
<path d="M44 21.6C44 37.8 22 54 22 54C22 54 0 37.8 0 21.6C0 15.8713 2.31785 10.3773 6.44365 6.32649C10.5695 2.27571 16.1652 0 22 0C27.8348 0 33.4305 2.27571 37.5564 6.32649C41.6822 10.3773 44 15.8713 44 21.6Z" fill="#221C35"/>
<path fill-rule="evenodd" clip-rule="evenodd" d="M12.4983 11C11.6699 11 10.9983 11.6716 10.9983 12.5V12.7445H13.2429H13.3963V11H12.4983ZM14.3963 11V12.7445H16.0101V11H14.3963ZM17.0101 11V12.7445H18.8853V11H17.0101ZM19.8853 11V12.7445H21.6299V11H19.8853ZM22.6299 11V12.7445H24.3744V11H22.6299ZM25.3744 11V12.7445H27.1189V11H25.3744ZM28.1189 11V12.7445H29.8634V11H28.1189ZM30.8634 11V12.7445H31.0169H33V12.5C33 11.6716 32.3284 11 31.5 11H30.8634ZM31.5169 13.7445H33.5H34V13.2445V12.5C34 11.1193 32.8807 10 31.5 10H30.3634H27.6189H24.8744H22.1299H19.3853H16.5101H13.8963H12.4983C11.1176 10 9.99833 11.1193 9.99833 12.5V13.2445V13.7445H10.4983H12.7429V23.7226H12.6746C11.8461 23.7226 11.1746 24.3942 11.1746 25.2226V25.3136C11.1746 26.0309 11.678 26.6306 12.3508 26.7786V31.5017C12.3508 32.8824 13.4701 34.0017 14.8508 34.0017H29.2782C30.659 34.0017 31.7782 32.8824 31.7782 31.5017V26.8013C32.5155 26.7066 33.0852 26.0766 33.0852 25.3136V25.2226C33.0852 24.3942 32.4136 23.7226 31.5852 23.7226H31.5169V13.7445ZM30.5169 13.7445H30.3634H27.6189H24.8744H22.1299H19.3853H16.5101H13.8963H13.7429V23.7226H14.3398C14.3984 23.2339 14.545 22.8294 14.7638 22.5021C14.9752 22.1858 15.2406 21.9617 15.5205 21.8074C15.5682 20.9748 15.8043 20.326 16.2161 19.8691C16.686 19.3477 17.3194 19.1484 17.9477 19.1484C18.7398 19.1484 19.2376 19.6811 19.5107 20.2587C19.7359 20.7351 19.8457 21.3048 19.8762 21.8395C20.4386 22.1703 20.8574 22.7977 20.9676 23.7226H22.0219V23.1315C22.0219 22.3031 22.6935 21.6315 23.5219 21.6315H23.6882V20.6484C23.6882 19.82 24.3598 19.1484 25.1882 19.1484H26.6189C27.4473 19.1484 28.1189 19.82 28.1189 20.6484V21.6315H28.1872C29.0156 21.6315 29.6872 22.3031 29.6872 23.1315V23.7226H30.5169V13.7445ZM28.6872 23.7226V23.1315C28.6872 22.8554 28.4633 22.6315 28.1872 22.6315H27.6189H26.3546V23.7226H28.6872ZM25.3546 23.7226V22.6315H24.1882H23.5219C23.2458 22.6315 23.0219 22.8554 23.0219 23.1315V23.7226H25.3546ZM27.1189 21.6315V20.6484C27.1189 20.3722 26.895 20.1484 26.6189 20.1484H25.1882C24.9121 20.1484 24.6882 20.3722 24.6882 20.6484V21.6315H25.8546H27.1189ZM19.959 23.7226C19.8454 23.0203 19.4942 22.7309 19.2131 22.6278C19.0177 22.5561 18.8172 22.5563 18.6584 22.6026C18.6364 22.609 18.6161 22.616 18.5973 22.6233C18.7698 22.9322 18.8888 23.2994 18.9408 23.7226H19.959ZM17.9305 23.7226C17.8646 23.3381 17.7247 23.0684 17.5684 22.8863C17.3346 22.6141 17.0341 22.5008 16.7715 22.5008C16.5857 22.5008 16.3792 22.5287 16.1846 22.6006C15.9582 22.6842 15.7503 22.8256 15.5952 23.0578C15.4907 23.2141 15.399 23.4282 15.3497 23.7226H17.9305ZM17.9141 21.8622C18.0573 21.7622 18.2173 21.6895 18.3786 21.6425C18.5271 21.5992 18.6852 21.5748 18.8473 21.571C18.8042 21.2438 18.7241 20.9347 18.6066 20.686C18.4222 20.296 18.2012 20.1484 17.9477 20.1484C17.5305 20.1484 17.1957 20.2758 16.9589 20.5386C16.7837 20.733 16.6284 21.0386 16.5555 21.509C16.63 21.5034 16.7022 21.5008 16.7715 21.5008C17.158 21.5008 17.5604 21.6182 17.9141 21.8622ZM30.7782 26.8136H13.3508V31.5017C13.3508 32.3301 14.0224 33.0017 14.8508 33.0017H29.2782C30.1067 33.0017 30.7782 32.3301 30.7782 31.5017V26.8136ZM12.6746 24.7226C12.3984 24.7226 12.1746 24.9464 12.1746 25.2226V25.3136C12.1746 25.5898 12.3984 25.8136 12.6746 25.8136H12.8508H31.2782H31.5852C31.8613 25.8136 32.0852 25.5898 32.0852 25.3136V25.2226C32.0852 24.9464 31.8613 24.7226 31.5852 24.7226H31.0169H29.1872H25.8546H22.5219H20.4962H18.4705H14.8111H13.2429H12.6746Z" fill="#E3EBF3"/>
</svg>
