<svg width="82" height="100" viewBox="0 0 82 100" fill="none" xmlns="http://www.w3.org/2000/svg">
  <path d="M82 40C82 70 41 100 41 100C41 100 0 70 0 40C0 29.3913 4.31963 19.2172 12.0086 11.7157C19.6976 4.21427 30.1261 0 41 0C51.8739 0 62.3024 4.21427 69.9914 11.7157C77.6804 19.2172 82 29.3913 82 40V40Z" fill="#221C35"/>
  <g clip-path="url(#clip0_46_4268)">
    <path d="M24.1717 55.9595H23.9356L23.6584 55.3021H22.2209L21.9437 55.9595H21.6973L22.7856 53.3906H23.0834L24.1717 55.9595ZM22.3133 55.0999H23.5762L22.9396 53.5929L22.3133 55.0999Z" fill="#F9F9F9"/>
    <path d="M26.431 55.1403V55.9595H26.2051V53.3906H27.3242C27.8171 53.3906 28.238 53.6637 28.238 54.2705C28.238 54.8167 27.8171 55.1403 27.3242 55.1403H26.431V55.1403ZM26.431 54.9279H27.3242C27.6836 54.9279 28.0019 54.6852 28.0019 54.2705C28.0019 53.8154 27.6836 53.603 27.3242 53.603H26.431V54.9279Z" fill="#F9F9F9"/>
    <path d="M32.2616 55.9595H32.0254L31.7482 55.3021H30.3108L30.0335 55.9595H29.7871L30.8755 53.3906H31.1732L32.2616 55.9595ZM30.4032 55.0999H31.6661L31.0295 53.5929L30.4032 55.0999Z" fill="#F9F9F9"/>
    <path d="M34.5325 55.1403V55.9595H34.3066V53.3906H35.4258C35.9186 53.3906 36.3396 53.6637 36.3396 54.2705C36.3396 54.6953 36.0829 54.9886 35.7236 55.0897L36.4423 55.9595H36.1445L35.4771 55.1302C35.4566 55.1302 35.4463 55.1302 35.4258 55.1302H34.5325V55.1403ZM34.5325 54.9279H35.4258C35.7954 54.9279 36.1035 54.6852 36.1035 54.2705C36.1035 53.8154 35.7852 53.603 35.4258 53.603H34.5325V54.9279Z" fill="#F9F9F9"/>
    <path d="M39.2442 53.603V55.9595H39.0183V53.603H38.125V53.3906H40.1272V53.603H39.2442Z" fill="#F9F9F9"/>
    <path d="M43.5462 55.0392L42.4271 53.7143V55.9595H42.2012V53.3906H42.4579L43.577 54.7358L44.6859 53.3906H44.9426V55.9595H44.7167V53.7042L43.6078 55.0392H43.5462Z" fill="#F9F9F9"/>
    <path d="M47.3652 55.9595V53.3906H49.2031V53.603H47.5911V54.5335H49.008V54.7459H47.5911V55.7572H49.2545V55.9595H47.3652Z" fill="#F9F9F9"/>
    <path d="M53.845 55.9595H53.578L51.699 53.7042V55.9595H51.4629V53.3906H51.7298L53.6088 55.646V53.3906H53.845V55.9595Z" fill="#F9F9F9"/>
    <path d="M57.0274 53.603V55.9595H56.7912V53.603H55.9082V53.3906H57.9104V53.603H57.0274Z" fill="#F9F9F9"/>
    <path d="M60.3964 54.675C60.0062 54.5435 59.7598 54.3716 59.7598 54.0378C59.7598 53.6029 60.0986 53.3501 60.6736 53.3501C60.92 53.3501 61.1972 53.4007 61.4128 53.4917L61.382 53.694C61.1561 53.6029 60.8892 53.5524 60.6736 53.5524C60.2526 53.5524 59.9959 53.7344 59.9959 54.0277C59.9959 54.3008 60.2423 54.3716 60.4888 54.4626L60.92 54.6143C61.3923 54.7761 61.5463 54.9683 61.5463 55.2919C61.5463 55.7268 61.1972 55.9898 60.612 55.9898C60.345 55.9898 60.037 55.919 59.77 55.8179L59.8008 55.5954C60.0575 55.7167 60.3655 55.7875 60.612 55.7875C61.0637 55.7875 61.3307 55.6055 61.3307 55.2919C61.3307 55.0796 61.2075 54.9582 60.8687 54.8368L60.3964 54.675Z" fill="#F9F9F9"/>
    <path d="M9.03729 41.3553L15.0746 35.6006V45.7852H3V35.6006L9.03729 41.3553Z" fill="#F9F9F9"/>
    <path d="M42.8788 35.7725H41.082V45.775H42.8788V35.7725Z" fill="#F9F9F9"/>
    <path d="M42.8788 24H41.082V34.0025H42.8788V24Z" fill="#F9F9F9"/>
    <path d="M79.0001 45.7851H67.8906L73.4351 35.5601L79.0001 45.7851Z" fill="#F9F9F9"/>
    <path d="M66.6179 35.7725V45.7852H56.4941V35.6006L64.8211 43.6006V35.7725H66.6179Z" fill="#F9F9F9"/>
    <path d="M55.2208 45.7851H44.1113L49.6558 35.5601L55.2208 45.7851Z" fill="#F9F9F9"/>
    <path d="M34.3871 45.7852H29.3047V35.7827H34.3871C37.1901 35.7827 39.4695 38.0179 39.4695 40.789C39.4695 43.54 37.1901 45.7852 34.3871 45.7852Z" fill="#F9F9F9"/>
    <path d="M21.7694 45.7851H26.8519V44.0152H23.0221L24.3671 42.8824C25.9483 41.5474 26.8621 39.5955 26.8621 37.5424V35.7725H21.7797C18.9767 35.7725 16.6973 38.0076 16.6973 40.7788C16.687 43.5398 18.9664 45.7851 21.7694 45.7851Z" fill="#F9F9F9"/>
  </g>
  <defs>
    <clipPath id="clip0_46_4268">
      <rect width="76" height="32" fill="white" transform="translate(3 24)"/>
    </clipPath>
  </defs>
</svg>
