<svg width="24" height="17" viewBox="0 0 24 17" fill="none" xmlns="http://www.w3.org/2000/svg">
  <path fill-rule="evenodd" clip-rule="evenodd" d="M16.8955 11.7391L19.1369 17H22.9155H24L23.5802 16L17.3385 1.13252L16.8631 0L16.2171 1.04469L12.5877 6.91433L12 7.86482L11.4118 6.91463L7.77783 1.0442L7.13144 0L6.65638 1.13246L0.419475 16L-2.28882e-05 17H1.0844H4.86308L7.10451 11.7391L7.56662 10.6545L8.24184 11.621L11.39 16.127L12 17L12.6099 16.127L15.7581 11.621L16.4334 10.6545L16.8955 11.7391ZM12 15.254L15.6136 10.0818L16.6465 8.60347L17.3533 10.2626L19.7978 16H22.4956L16.6926 2.17721L12.8505 8.39073L12.0005 9.76549L11.1497 8.39116L7.30277 2.17666L1.5039 16H4.20216L6.64664 10.2626L7.35351 8.60347L8.38637 10.0818L12 15.254Z" fill="#E3EBF3"/>
</svg>
