<svg width="133" height="160" viewBox="0 0 133 160" fill="none" xmlns="http://www.w3.org/2000/svg">
<path d="M133 64C133 112 66.5 160 66.5 160C66.5 160 0 112 0 64C0 47.0261 7.00623 30.7475 19.4774 18.7452C31.9486 6.74284 48.8631 0 66.5 0C84.1369 0 101.051 6.74284 113.523 18.7452C125.994 30.7475 133 47.0261 133 64V64Z" fill="#221C35"/>
<path d="M17.3234 62.8062L26.6469 53.8882V69.671H8V53.8882L17.3234 62.8062Z" fill="#F9F9F9"/>
<path d="M69.4249 54.1323H66.6218V69.6714H69.4249V54.1323Z" fill="#F9F9F9"/>
<path d="M69.4249 35.9116H66.6218V51.4507H69.4249V35.9116Z" fill="#F9F9F9"/>
<path d="M125 69.671H107.876L116.422 53.8882L125 69.671Z" fill="#F9F9F9"/>
<path d="M105.927 54.1546V69.671H90.3265V53.8882L103.158 66.2856V54.1546H105.927Z" fill="#F9F9F9"/>
<path d="M88.3765 69.671H71.2531L79.7989 53.8882L88.3765 69.671Z" fill="#F9F9F9"/>
<path d="M56.3234 69.6714H48.5234V54.1323H56.3234C60.6252 54.1323 64.1234 57.6047 64.1234 61.9097C64.1234 66.1833 60.6252 69.6714 56.3234 69.6714Z" fill="#F9F9F9"/>
<path d="M36.9297 69.6714H44.7296V66.9246H38.8521L40.9163 65.1666C43.343 63.0947 44.7454 60.0654 44.7454 56.8791V54.1323H36.9454C32.6436 54.1323 29.1454 57.6011 29.1454 61.9019C29.1297 66.1869 32.6279 69.6714 36.9297 69.6714Z" fill="#F9F9F9"/>
</svg>
