<svg width="1752" height="500" viewBox="0 0 1752 500" fill="none" xmlns="http://www.w3.org/2000/svg">
<path d="M136.092 398.207L272.184 266.167V499.847H0V266.167L136.092 398.207Z" fill="#F9F9F9"/>
<path d="M898.935 270.112H858.432V499.615H898.935V270.112Z" fill="#F9F9F9"/>
<path d="M898.935 0H858.432V229.502H898.935V0Z" fill="#F9F9F9"/>
<path d="M1713.18 499.846H1462.75L1587.74 265.238L1713.18 499.846Z" fill="#F9F9F9"/>
<path d="M1434.06 270.112V499.847H1205.85V266.167L1393.56 449.723V270.112H1434.06Z" fill="#F9F9F9"/>
<path d="M1177.14 499.846H926.713L1051.7 265.238L1177.14 499.846Z" fill="#F9F9F9"/>
<path d="M707.534 499.847H592.967V270.344H707.534C770.72 270.344 822.101 321.628 822.101 385.211C822.101 448.33 770.72 499.847 707.534 499.847Z" fill="#F9F9F9"/>
<path d="M423.083 499.847H537.65V459.237H451.319L481.639 433.247C517.282 402.616 537.881 357.829 537.881 310.722V270.112H423.314C360.129 270.112 308.747 321.397 308.747 384.98C308.515 448.331 359.897 499.847 423.083 499.847Z" fill="#F9F9F9"/>
</svg>
