<svg width="484" height="224" viewBox="0 0 484 224" fill="none" xmlns="http://www.w3.org/2000/svg">
<path d="M126.3 5.6V145.4H156.9V170.3H126.3V218H98.1V170.3H0.3V143.9L90.6 5.6H126.3ZM98.1 145.4V38.9H97.5L30.3 145.4H98.1Z" fill="#6BDAD5"/>
<path d="M202.718 15.5C213.918 5.3 227.618 0.199997 243.818 0.199997C260.018 0.199997 273.618 5.3 284.618 15.5C295.818 25.7 303.818 39 308.618 55.4C313.618 71.6 316.118 90.4 316.118 111.8C316.118 144.8 310.018 171.7 297.818 192.5C285.818 213.1 267.818 223.4 243.818 223.4C219.618 223.4 201.418 213.1 189.218 192.5C177.218 171.7 171.218 144.8 171.218 111.8C171.218 90.4 173.618 71.6 178.418 55.4C183.418 39 191.518 25.7 202.718 15.5ZM243.818 24.5C235.418 24.5 228.218 27.3 222.218 32.9C216.418 38.5 212.018 45.9 209.018 55.1C206.218 64.3 204.118 73.6 202.718 83C201.518 92.2 200.918 101.8 200.918 111.8C200.918 122 201.518 131.7 202.718 140.9C204.118 150.1 206.218 159.3 209.018 168.5C212.018 177.7 216.418 185.1 222.218 190.7C228.218 196.1 235.418 198.8 243.818 198.8C252.018 198.8 259.018 196.1 264.818 190.7C270.818 185.1 275.218 177.7 278.018 168.5C281.018 159.3 283.118 150.1 284.318 140.9C285.718 131.5 286.418 121.8 286.418 111.8C286.418 101.8 285.718 92.2 284.318 83C283.118 73.6 281.018 64.3 278.018 55.1C275.218 45.9 270.818 38.5 264.818 32.9C259.018 27.3 252.018 24.5 243.818 24.5Z" fill="#F18A00"/>
<path d="M453.136 5.6V145.4H483.736V170.3H453.136V218H424.936V170.3H327.136V143.9L417.436 5.6H453.136ZM424.936 145.4V38.9H424.336L357.136 145.4H424.936Z" fill="#F3BD48"/>
</svg>
