<svg width="296" height="127" viewBox="0 0 296 127" fill="none" xmlns="http://www.w3.org/2000/svg">
<g clip-path="url(#clip0_40_1009)">
<path d="M82.4577 126.839H81.538L80.4582 124.23H74.8598L73.7801 126.839H72.8203L77.0592 116.644H78.2189L82.4577 126.839ZM75.2197 123.428H80.1383L77.659 117.447L75.2197 123.428Z" fill="#221C35"/>
<path d="M91.2557 123.588V126.839H90.376V116.644H94.7348C96.6543 116.644 98.2938 117.728 98.2938 120.136C98.2938 122.304 96.6543 123.588 94.7348 123.588H91.2557ZM91.2557 122.745H94.7348C96.1344 122.745 97.3741 121.782 97.3741 120.136C97.3741 118.33 96.1344 117.487 94.7348 117.487H91.2557V122.745Z" fill="#221C35"/>
<path d="M113.969 126.839H113.05L111.97 124.23H106.371L105.292 126.839H104.332L108.571 116.644H109.731L113.969 126.839ZM106.731 123.428H111.65L109.171 117.447L106.731 123.428Z" fill="#221C35"/>
<path d="M122.807 123.588V126.839H121.927V116.644H126.286C128.205 116.644 129.845 117.728 129.845 120.136C129.845 121.822 128.845 122.986 127.445 123.387L130.245 126.839H129.085L126.486 123.548C126.406 123.548 126.366 123.548 126.286 123.548H122.807V123.588ZM122.807 122.745H126.286C127.725 122.745 128.925 121.782 128.925 120.136C128.925 118.33 127.685 117.487 126.286 117.487H122.807V122.745Z" fill="#221C35"/>
<path d="M141.162 117.487V126.839H140.282V117.487H136.803V116.644H144.601V117.487H141.162Z" fill="#221C35"/>
<path d="M157.917 123.187L153.558 117.929V126.839H152.679V116.644H153.678L158.037 121.983L162.356 116.644H163.356V126.839H162.476V117.888L158.157 123.187H157.917Z" fill="#221C35"/>
<path d="M172.793 126.839V116.644H179.951V117.487H173.673V121.18H179.191V122.023H173.673V126.037H180.151V126.839H172.793Z" fill="#221C35"/>
<path d="M198.027 126.839H196.987L189.669 117.888V126.839H188.749V116.644H189.789L197.107 125.595V116.644H198.027V126.839Z" fill="#221C35"/>
<path d="M210.423 117.487V126.839H209.504V117.487H206.064V116.644H213.862V117.487H210.423Z" fill="#221C35"/>
<path d="M223.54 121.742C222.02 121.22 221.061 120.538 221.061 119.213C221.061 117.487 222.38 116.484 224.62 116.484C225.579 116.484 226.659 116.684 227.499 117.046L227.379 117.848C226.499 117.487 225.459 117.286 224.62 117.286C222.98 117.286 221.98 118.009 221.98 119.173C221.98 120.257 222.94 120.538 223.9 120.899L225.579 121.501C227.419 122.143 228.019 122.906 228.019 124.19C228.019 125.916 226.659 126.96 224.38 126.96C223.34 126.96 222.14 126.679 221.101 126.278L221.221 125.394C222.22 125.876 223.42 126.157 224.38 126.157C226.139 126.157 227.179 125.435 227.179 124.19C227.179 123.347 226.699 122.866 225.379 122.384L223.54 121.742Z" fill="#221C35"/>
<path d="M23.5136 68.8786L47.0273 46.0395V86.4595H0V46.0395L23.5136 68.8786Z" fill="#6BDAD5"/>
<path d="M155.318 46.7219H148.32V86.4194H155.318V46.7219Z" fill="#221C35"/>
<path d="M155.318 0H148.32V39.6975H155.318V0Z" fill="#221C35"/>
<path d="M296 86.4596H252.731L274.326 45.879L296 86.4596Z" fill="#A1A468"/>
<path d="M247.773 46.7219V86.4595H208.344V46.0395L240.775 77.7895V46.7219H247.773Z" fill="#F3BD48"/>
<path d="M203.386 86.4596H160.117L181.711 45.879L203.386 86.4596Z" fill="#007DA5"/>
<path d="M122.247 86.4596H102.452V46.762H122.247C133.164 46.762 142.041 55.6328 142.041 66.6309C142.041 77.5487 133.164 86.4596 122.247 86.4596Z" fill="#4C2F48"/>
<path d="M73.1005 86.4595H92.8951V79.4352H77.9792L83.2178 74.9396C89.3761 69.6413 92.9351 61.8944 92.9351 53.7462V46.7219H73.1405C62.2234 46.7219 53.3458 55.5926 53.3458 66.5907C53.3058 77.5487 62.1835 86.4595 73.1005 86.4595Z" fill="#F18A00"/>
</g>
<defs>
<clipPath id="clip0_40_1009">
<rect width="296" height="127" fill="white"/>
</clipPath>
</defs>
</svg>
