<svg width="1920" height="554" viewBox="0 0 1920 554" fill="none" xmlns="http://www.w3.org/2000/svg">
<path d="M153 441.347L306 295V554H0V295L153 441.347Z" fill="#6BDAD5"/>
<path d="M1008 299H962V554H1008V299Z" fill="#221C35"/>
<path d="M1008 0H962V255H1008V0Z" fill="#221C35"/>
<path d="M1920 554H1639L1779.24 295L1920 554Z" fill="#A1A468"/>
<path d="M1607 299.372V554H1351V295L1561.56 498.445V299.372H1607Z" fill="#F3BD48"/>
<path d="M1319 554H1038L1178.24 295L1319 554Z" fill="#007DA5"/>
<path d="M793 554H665V299H793C863.594 299 921 355.982 921 426.629C921 496.76 863.594 554 793 554Z" fill="#4C2F48"/>
<path d="M474.742 554H602.741V508.924H506.289L540.164 480.076C579.986 446.076 603 396.364 603 344.076V299H475C404.407 299 347.001 355.924 347.001 426.5C346.742 496.818 404.148 554 474.742 554Z" fill="#F18A00"/>
</svg>
