<svg width="47" height="41" viewBox="0 0 47 41" fill="none" xmlns="http://www.w3.org/2000/svg">
<path fill-rule="evenodd" clip-rule="evenodd" d="M31.6889 0.5H32.1889H46.5H47V1V4.5V8V19.5V19.7458L46.8054 19.8959L20.2276 40.3959L20.0926 40.5H19.9222H2.54444H2.04444V40V32.5V29.5H0.499996H-3.8147e-06V29V25.5V25H0.499996H18.4V17H16.3444H15.8444V16.5V13V12.5H16.3444H34.7556V5H32.1889H31.6889V4.5V1V0.5ZM35.7556 5V13V16.5V17H35.2556H19.4V25.5V29V29.5H18.9H3.04444V32H10.2111C10.4873 32 10.7111 32.2239 10.7111 32.5C10.7111 32.7761 10.4873 33 10.2111 33H3.04444V39.5H19.7518L46 19.2542V8.5H38.8333C38.5572 8.5 38.3333 8.27614 38.3333 8C38.3333 7.72386 38.5572 7.5 38.8333 7.5H46V5H35.7556ZM46 4V1.5H32.6889V4H35.2556H46ZM34.7556 13.5H16.8444V16H18.9H34.7556V13.5ZM18.4 26H0.999996V28.5H2.54444H18.4V26Z" fill="#221C35"/>
</svg>
