<svg width="55" height="54" viewBox="0 0 55 54" fill="none" xmlns="http://www.w3.org/2000/svg">
<path fill-rule="evenodd" clip-rule="evenodd" d="M10.0986 6.43567L10.6588 6.50361L47.5602 10.9791L48 11.0325V11.4755V14.8321V14.9691L47.9302 15.087L45.1831 19.7244V26.9667L47.5494 27.2017L48 27.2465V27.6993V31.0559V31.1929L47.9302 31.3108L45.1831 35.9481V47V47.568L44.6197 47.4959L7.43657 42.7407L7 42.6849V42.2447V31.0559V30.9045L7.08406 30.7784L9.73397 26.8061L7.43756 26.517L7 26.462V26.021V14.8321V14.6836L7.08109 14.5592L10.0986 9.92837V6.99997V6.43567ZM10.8461 10.6129L8.35407 14.4373L44.4205 19.0497L46.6826 15.2309L10.8461 10.6129ZM47 14.2636V11.9185L11.0986 7.56428V9.63719L47 14.2636ZM44.1831 20.0275L8 15.4002V25.5799L10.661 25.9149L44.1831 30.1345V27.4196V20.0275ZM45.1831 30.2603L47 30.489V28.1521L45.1831 27.9717V30.2603ZM46.6814 31.4568L44.6207 31.1974L10.8429 26.9457L8.36363 30.6623L44.4205 35.2735L46.6814 31.4568ZM44.1831 36.2513L8 31.6239V41.8046L44.1831 46.432V36.2513Z" fill="#221C35"/>
</svg>
