<svg width="55" height="54" viewBox="0 0 55 54" fill="none" xmlns="http://www.w3.org/2000/svg">
<path fill-rule="evenodd" clip-rule="evenodd" d="M23.6976 15.0973L46.2693 28.4834C46.5847 27.6769 47.0807 26.6838 47.7392 25.82C48.2888 25.099 48.9902 24.4194 49.8323 24.0504C42.6426 19.7843 29.8377 12.1973 27.7479 11.0024C26.5539 11.0472 25.6287 11.7176 24.933 12.6189C24.3139 13.4211 23.9087 14.3696 23.6976 15.0973ZM51.3156 23.7678C52.0487 23.8148 52.6 24.2164 52.9565 24.742C53.3273 25.2886 53.5001 25.9799 53.5001 26.6191C53.5001 27.3315 53.1565 28.007 52.7233 28.4658C52.5039 28.6982 52.2429 28.8952 51.9602 29.0149C51.6783 29.1344 51.3421 29.189 51.0102 29.0765C50.7926 29.0028 50.6532 28.8481 50.5688 28.7163C50.484 28.5838 50.4308 28.438 50.3959 28.311C50.3259 28.0568 50.3047 27.7868 50.3047 27.611C50.3047 27.5525 50.2955 27.4881 50.2779 27.4361C50.2677 27.4059 50.2579 27.3891 50.2522 27.3808C50.2472 27.3806 50.24 27.3807 50.2299 27.3815C50.1737 27.3863 50.0509 27.4167 49.8455 27.5419C49.4891 27.7593 49.2177 28.1619 49.0284 28.6386C48.8443 29.1025 48.7624 29.576 48.7434 29.8613C48.7352 30.3444 48.405 31.1939 47.3918 31.7662C46.5186 32.2593 43.2145 34.1988 41.6673 35.1095L41.6311 35.1309L41.5918 35.1458C41.3914 35.2222 41.05 35.3106 40.7212 35.2554C40.5471 35.2262 40.339 35.1498 40.1752 34.9702C40.0065 34.7851 39.938 34.5493 39.938 34.3067C39.938 34.0151 39.8373 33.758 39.7309 33.6498C39.6893 33.6076 39.6643 33.6038 39.6487 33.6032C39.6261 33.6024 39.5429 33.6084 39.3902 33.7193C39.0025 34.0008 38.7985 34.2201 38.6488 34.5362C38.4862 34.8795 38.3717 35.37 38.25 36.2361L38.2484 36.2475L38.2483 36.2474C38.1744 36.6981 37.8946 37.0592 37.6395 37.3066C37.3827 37.5557 37.0963 37.7426 36.895 37.8464L30.8065 41.3128L30.7779 41.3291L30.7474 41.3414C30.5607 41.4174 30.2267 41.4776 29.9151 41.285C29.5782 41.0767 29.4493 40.6898 29.4493 40.2583C29.4493 40.061 29.4351 39.9152 29.4118 39.8116C29.397 39.7453 29.3812 39.7088 29.3717 39.6911C29.3388 39.6897 29.2649 39.6956 29.1341 39.7399C28.6251 39.9124 27.8881 40.5749 27.8881 41.9942C27.8881 42.2485 27.8053 42.5224 27.6916 42.7632C27.5747 43.011 27.4057 43.2651 27.1928 43.4781C26.9814 43.6896 26.7055 43.8809 26.3735 43.9611C26.0277 44.0446 25.6584 43.9975 25.3046 43.7888L1.76596 29.9016L1.54241 29.7697L1.52163 29.5109C1.43482 28.4298 1.58781 26.7862 2.34565 25.3421C3.11778 23.8708 4.51709 22.6173 6.85249 22.4014L6.87545 22.3993H6.8985C6.98801 22.3993 7.06079 22.4245 7.0734 22.4288C7.07399 22.429 7.07445 22.4292 7.07477 22.4293C7.10102 22.4381 7.1251 22.448 7.14329 22.4558C7.18075 22.4719 7.22364 22.4925 7.26801 22.5147C7.35827 22.5599 7.47964 22.6243 7.62688 22.7045C7.87281 22.8385 8.20208 23.0228 8.60201 23.2499L12.0764 21.2094C12.2989 20.3989 12.7614 19.2806 13.5023 18.2935C14.3106 17.2165 15.4899 16.2468 17.091 16.0784L17.2546 16.0612L17.3964 16.1445L18.979 17.0736L22.6857 15.0052C22.9088 14.1559 23.3786 12.9964 24.1414 12.0079C24.9761 10.9263 26.205 10 27.8759 10H28.0074L28.1218 10.0646C29.8751 11.0549 44.2467 19.5723 51.3156 23.7678ZM19.979 17.6607L41.6199 30.3661C41.6444 30.3799 41.6686 30.3941 41.6923 30.4087C42.0187 30.609 42.2697 30.8747 42.4498 31.1299L45.566 29.229L23.1118 15.9125L19.979 17.6607ZM41.1219 31.2333L41.173 31.2633C41.5089 31.471 41.7259 31.8161 41.8021 32.0099L42.0199 32.5634L42.5278 32.2536L46.7965 29.6498L46.9556 29.5527L47.0123 29.3752C47.2637 28.589 47.7893 27.4037 48.5345 26.4262C49.2908 25.4341 50.1879 24.7632 51.1706 24.7632C51.5845 24.7632 51.8988 24.9641 52.1289 25.3034C52.3679 25.6557 52.5001 26.1424 52.5001 26.6191C52.5001 27.0226 52.2948 27.4631 51.9962 27.7792C51.8498 27.9343 51.6991 28.0395 51.5702 28.0941C51.4915 28.1275 51.4328 28.1376 51.3912 28.1378C51.3818 28.1155 51.3709 28.0851 51.36 28.0456C51.3202 27.9009 51.3047 27.7246 51.3047 27.611C51.3047 27.3527 51.2355 26.885 50.8737 26.5948C50.442 26.2486 49.8778 26.3509 49.3248 26.6882C48.7054 27.066 48.3265 27.6966 48.099 28.2697C47.869 28.849 47.7677 29.4348 47.7445 29.8122L47.7436 29.8275V29.8429C47.7436 29.9419 47.63 30.4832 46.9 30.8955C46.0245 31.3899 42.7596 33.3063 41.2004 34.224C41.1539 34.2395 41.0991 34.254 41.0434 34.2631C41.0015 34.2699 40.9661 34.2726 40.9377 34.2727C40.9307 33.827 40.7861 33.2965 40.4438 32.9486C40.2567 32.7583 39.9997 32.6149 39.6837 32.6038C39.3748 32.593 39.0768 32.711 38.8026 32.9101C38.3366 33.2485 37.9917 33.5873 37.7451 34.1081C37.5119 34.6005 37.3826 35.224 37.2606 36.0903C37.2355 36.2339 37.1293 36.4083 36.9432 36.5888C36.7617 36.7649 36.554 36.898 36.4306 36.9608L36.4201 36.9661L36.4098 36.972L30.4543 40.3626C30.4513 40.3344 30.4493 40.3 30.4493 40.2583C30.4493 40.0217 30.433 39.7954 30.3876 39.5929C30.3427 39.3926 30.262 39.1822 30.1086 39.0106C29.7521 38.6119 29.243 38.6471 28.8131 38.7928C27.8586 39.1163 26.8881 40.1897 26.8881 41.9942C26.8881 42.0499 26.8642 42.1735 26.7873 42.3364C26.7137 42.4924 26.6082 42.6485 26.4857 42.771C26.3618 42.8949 26.2413 42.9643 26.1388 42.989C26.1035 42.9975 26.0659 43.0021 26.025 42.9994C25.9497 41.821 26.273 39.6193 28.0512 38.3045C28.9377 37.649 29.5536 37.3536 29.9776 37.2611C30.182 37.2166 30.3346 37.2198 30.4544 37.2518C30.5524 37.3099 30.6493 37.3675 30.7451 37.4243C30.9065 37.5838 31.0469 37.8422 31.1915 38.2095L31.4256 38.8046L31.9467 38.4338C32.9009 37.7547 35.2384 36.3528 36.3003 35.7299L36.4674 35.6319L36.5249 35.4469C36.7554 34.7048 37.2495 33.5842 37.9668 32.6604C38.6918 31.7268 39.569 31.0869 40.56 31.0869C40.775 31.0869 40.9605 31.1436 41.1219 31.2333ZM39.4761 30.2671L18.7196 18.0809L17.0372 17.0932C15.8848 17.2672 14.9814 17.9887 14.3021 18.8938C13.7004 19.6954 13.3031 20.6059 13.092 21.2972L35.7769 34.5612C36.0745 33.7962 36.5445 32.8615 37.177 32.0471C37.7649 31.29 38.5342 30.5865 39.4761 30.2671ZM35.0612 35.3012L12.5093 22.1149L9.60242 23.8221C14.3255 26.5385 24.7291 32.69 30.8733 36.3375C31.0594 36.4087 31.2283 36.5136 31.3801 36.6493C31.5802 36.828 31.7365 37.0487 31.8638 37.2802C32.7529 36.6925 34.0864 35.8822 35.0612 35.3012ZM29.1557 36.4811C22.5541 32.5653 12.3703 26.5496 8.35828 24.2618C7.84504 23.9691 7.43548 23.739 7.14843 23.5826C7.00516 23.5046 6.89635 23.447 6.8219 23.4097C4.93984 23.6212 3.85226 24.6232 3.23112 25.8068C2.63832 26.9364 2.47053 28.2392 2.50381 29.1758L25.0202 42.4599C25.0685 41.0142 25.5889 38.8814 27.4567 37.5004C28.1019 37.0234 28.6623 36.6875 29.1557 36.4811ZM50.261 27.3818C50.2612 27.3819 50.2605 27.3819 50.2592 27.3814L50.261 27.3818Z" fill="#221C35"/>
</svg>
