<svg width="55" height="54" viewBox="0 0 55 54" fill="none" xmlns="http://www.w3.org/2000/svg">
<path fill-rule="evenodd" clip-rule="evenodd" d="M8.5 8H46.5V46H40.5V19C40.5 17.8954 39.6046 17 38.5 17H28H16.5C15.3954 17 14.5 17.8954 14.5 19V46H8.5V8ZM28.5 18H38.5C39.0523 18 39.5 18.4477 39.5 19V46H28.5V18ZM27.5 46V18H16.5C15.9477 18 15.5 18.4477 15.5 19V46H27.5ZM28 47H15.5H14.5H8.5H7.5V46V8V7H8.5H46.5H47.5V8V46V47H46.5H40.5H39.5H28ZM24.5 12.5C24.5 12.2239 24.7239 12 25 12H31C31.2761 12 31.5 12.2239 31.5 12.5C31.5 12.7761 31.2761 13 31 13H25C24.7239 13 24.5 12.7761 24.5 12.5Z" fill="#221C35"/>
</svg>
