<svg width="55" height="54" viewBox="0 0 55 54" fill="none" xmlns="http://www.w3.org/2000/svg">
<path fill-rule="evenodd" clip-rule="evenodd" d="M15.4587 5.5H15.9587H33.9587H51.666H52.166V6V24.413V42.8261V43.0515L51.9971 43.2007L46.1435 48.3746L46.0017 48.5H45.8124H35.5685H24.4465H13.6172H3.66602H3.16602V48V29.8913V29.5593L3.47205 29.4305L15.4587 24.3854V6V5.5ZM15.4587 25.4703L6.14285 29.3913H13.6172H15.4587V25.4703ZM15.4587 30.3913H14.1172V43.0587L15.4587 42.494V30.3913ZM16.0596 43.3261L14.1172 44.1436V47.5H23.9465V43.3261H16.0596ZM24.9465 43.3261V47.5H35.0685V43.3261H33.9587H24.9465ZM36.0685 43.3261V47.5H45.3124V43.3261H36.0685ZM45.3124 42.3261H36.0685V30.3913H45.3124V42.3261ZM46.3124 43.3261V46.8907L50.3453 43.3261H46.3124ZM51.166 42.3261H46.3124V30.1082L51.166 25.5658V42.3261ZM51.166 24.1962V6.5H34.4587V29.3913H35.5685H45.6149L51.166 24.1962ZM33.4587 29.3913H24.4465H16.4587V24.7174V6.5H33.4587V29.3913ZM33.4587 30.3913V42.3261H24.9465V30.3913H33.4587ZM23.9465 30.3913V42.3261H16.4587V30.3913H23.9465ZM34.4587 42.3261V30.3913H35.0685V42.3261H34.4587ZM13.1172 47.5V44.5645L6.14285 47.5H13.1172ZM4.16602 47.2471V30.3913H13.1172V43.4796L4.16602 47.2471ZM31.1172 27V23.3478H32.1172V27H31.1172ZM36.8002 23.3478V27H35.8002V23.3478H36.8002Z" fill="#221C35"/>
</svg>
