<svg width="54" height="54" viewBox="0 0 54 54" fill="none" xmlns="http://www.w3.org/2000/svg">
<path fill-rule="evenodd" clip-rule="evenodd" d="M13.9642 8.1435C11.2148 11.1109 10.0005 14.8821 10.0005 18.081V45.7846H44V18.081C44 14.8715 42.8819 11.0997 40.2359 8.13671C37.6015 5.18661 33.4187 3 27.2061 3C20.9926 3 16.7031 5.18755 13.9642 8.1435ZM44 46.7846V52.0042H45V46.2846V18.081C45 14.6589 43.8122 10.6402 40.9818 7.47064C38.1398 4.28812 33.6757 2 27.2061 2C20.7374 2 16.1741 4.28718 13.2307 7.46384C10.2979 10.6291 9.00048 14.6483 9.00048 18.081V46.2846V52.0042H10.0005V46.7846H44ZM15.7945 14.2281H16.2945H37.706H38.206V14.7281V20.8422V21.3422H37.706H16.2945H15.7945V20.8422V14.7281V14.2281ZM16.7945 15.2281V20.3422H37.206V15.2281H16.7945ZM15.7945 25.4701H16.2945H37.706H38.206V25.9701V39.9733V40.4733H37.706H16.2945H15.7945V39.9733V25.9701V25.4701ZM17.5602 26.4701L24.4309 32.9025L25.6949 34.0859L25.6991 34.0898L25.6991 34.0898C25.8076 34.1938 26.0206 34.365 26.2759 34.5072C26.5376 34.6529 26.7931 34.7398 27.0002 34.7398C27.2074 34.7398 27.4628 34.6529 27.7246 34.5072C27.9799 34.365 28.1928 34.1938 28.3014 34.0898L28.3055 34.0859L28.3056 34.0859L29.5696 32.9025L36.4403 26.4701H17.5602ZM37.206 27.1231L30.6597 33.2518L37.206 38.8836V27.1231ZM36.3581 39.4733L29.9254 33.9392L28.9932 34.812C28.9925 34.8126 28.9918 34.8133 28.9911 34.8139C28.8249 34.9728 28.5446 35.1951 28.2112 35.3808C27.8827 35.5637 27.4519 35.7398 27.0002 35.7398C26.5486 35.7398 26.1178 35.5637 25.7893 35.3808C25.4559 35.1951 25.1757 34.9728 25.0094 34.814C25.0087 34.8133 25.008 34.8126 25.0073 34.812L24.0751 33.9392L17.6424 39.4733H36.3581ZM16.7945 38.8836V27.1231L23.3408 33.2518L16.7945 38.8836Z" fill="#221C35"/>
</svg>
