<svg width="55" height="54" viewBox="0 0 55 54" fill="none" xmlns="http://www.w3.org/2000/svg">
<path fill-rule="evenodd" clip-rule="evenodd" d="M32.3588 9.07562C32.2306 7.87225 32.4852 6.52529 33.4856 5L34.3218 5.54843C33.4385 6.89513 33.2513 8.01307 33.3531 8.96974C33.4575 9.95023 33.8672 10.8028 34.2733 11.6379L34.2735 11.6382L34.2746 11.6405L34.2746 11.6406L34.2959 11.6845C34.6545 12.423 35.0106 13.1564 35.0978 13.9474C35.1908 14.7911 34.978 15.6488 34.3221 16.6511L34.3214 16.6521C34.1908 16.8507 34.2464 17.1176 34.4358 17.2463L33.8734 18.0732C33.2302 17.6358 33.0567 16.7557 33.4856 16.1031C34.0433 15.2506 34.1661 14.6221 34.1038 14.0569C34.0374 13.4546 33.7596 12.8697 33.375 12.0772L33.375 12.0772L33.374 12.0752L33.3738 12.0749L33.3621 12.0507C32.9667 11.2378 32.4831 10.2434 32.3588 9.07562ZM26.1575 5C25.1571 6.52529 24.9025 7.87225 25.0306 9.07562C25.155 10.2434 25.6386 11.2378 26.0339 12.0507L26.0457 12.0749L26.0459 12.0752L26.0468 12.0772L26.0469 12.0772C26.4315 12.8697 26.7093 13.4546 26.7757 14.0569C26.838 14.6221 26.7152 15.2506 26.1575 16.1031C25.7286 16.7557 25.9021 17.6358 26.5453 18.0732L27.1076 17.2463C26.9183 17.1176 26.8627 16.8507 26.9933 16.6521L26.9939 16.6511C27.6498 15.6488 27.8627 14.7911 27.7697 13.9474C27.6825 13.1564 27.3264 12.423 26.9678 11.6845L26.9465 11.6406L26.9465 11.6405L26.9453 11.6382L26.9452 11.6379C26.5391 10.8028 26.1294 9.95023 26.025 8.96974C25.9232 8.01307 26.1104 6.89513 26.9937 5.54843L26.1575 5ZM18.9875 5C17.9872 6.52529 17.7326 7.87225 17.8607 9.07561C17.9851 10.2434 18.4687 11.2378 18.864 12.0507L18.8758 12.0749L18.8759 12.0752L18.8769 12.0772L18.8769 12.0772C19.2616 12.8697 19.5394 13.4546 19.6058 14.0569C19.6681 14.6221 19.5453 15.2506 18.9876 16.1031C18.5587 16.7557 18.7322 17.6358 19.3754 18.0732L19.9377 17.2463C19.7484 17.1176 19.6927 16.8507 19.8234 16.6521L19.824 16.6511C20.4799 15.6488 20.6928 14.7911 20.5998 13.9474C20.5126 13.1564 20.1565 12.423 19.7979 11.6845L19.7765 11.6405L19.7754 11.6382L19.7753 11.6379C19.3692 10.8028 18.9595 9.95023 18.8551 8.96974C18.7532 8.01307 18.9405 6.89513 19.8237 5.54843L18.9875 5ZM11.8775 20.6658H42.7866C44.7247 20.6658 46.332 22.2774 46.332 24.292V40.9468C46.332 42.9615 44.7248 44.5731 42.7866 44.5731H15.5904H11.8775C9.93933 44.5731 8.33203 42.9614 8.33203 40.9468V24.292C8.33203 22.2774 9.93926 20.6658 11.8775 20.6658ZM42.7866 19.6658H11.8775C9.37016 19.6658 7.33203 21.742 7.33203 24.292V40.9468C7.33203 43.4968 9.37024 45.5731 11.8775 45.5731H15.1738V49.2743H16.1738V45.5731H38.4904V49.2743H39.4904V45.5731H42.7866C45.2939 45.5731 47.332 43.4968 47.332 40.9468V24.292C47.332 21.742 45.2938 19.6658 42.7866 19.6658ZM13.1758 41.731V23.4239H14.1758V41.731H13.1758ZM18.6719 23.4239V41.731H19.6719V23.4239H18.6719ZM24.1678 41.731V23.4239H25.1678V41.731H24.1678ZM29.498 23.4239V41.731H30.498V23.4239H29.498ZM34.9941 41.731V23.4239H35.9941V41.731H34.9941ZM40.4902 23.4239V41.731H41.4902V23.4239H40.4902Z" fill="#221C35"/>
</svg>
