<svg width="55" height="54" viewBox="0 0 55 54" fill="none" xmlns="http://www.w3.org/2000/svg">
<path fill-rule="evenodd" clip-rule="evenodd" d="M21.1088 6.50003H21.6088H33.2492H33.7492V7.00003V17.8495H50H50.5V18.3495V23.3322V23.8322H50H49.0804V46.5H50V47.5H48.5804H22.4606H17.2082H6.56152H5V46.5H6.06152V23.8322H5H4.5V23.3322V18.3495V17.8495H5H21.1088V7.00003V6.50003ZM22.1088 17.8495H32.7492V7.50003H22.1088V17.8495ZM7.06152 23.8322V46.5H16.7082V33.5744V23.8322H7.06152ZM17.7082 23.8322V33.0744H22.4606H22.9606V33.5744V38.0147L38.6358 33.0973L38.9351 34.0515L22.9606 39.0627V46.5H48.0804V23.8322H17.7082ZM21.9606 46.5V38.6955V34.0744H17.7082V46.5H21.9606ZM25.3675 9.4066H25.8675C26.9892 9.4066 27.9199 9.46854 28.5708 9.78589C28.9178 9.95502 29.1974 10.2011 29.3824 10.5463C29.5627 10.8826 29.6325 11.2747 29.6325 11.7059C29.6325 12.1287 29.5741 12.5196 29.4152 12.8617C29.2513 13.2142 28.9948 13.4845 28.6531 13.6798C28.1025 13.9945 27.3323 14.1104 26.3675 14.1372V15.5813H25.3675V13.6436V9.9066V9.4066ZM26.3675 13.1365C27.2755 13.1087 27.827 13.0002 28.1569 12.8116C28.3297 12.7128 28.4369 12.5938 28.5083 12.4403C28.5844 12.2763 28.6325 12.0444 28.6325 11.7059C28.6325 11.3759 28.5781 11.1624 28.501 11.0186C28.4287 10.8838 28.318 10.7751 28.1326 10.6848C27.7827 10.5141 27.2265 10.4331 26.3675 10.4122V13.1365ZM5.5 18.8495V22.8322H6.56152H17.2082H48.5804H49.5V18.8495H33.2492H21.6088H5.5ZM10.7461 34.8737H11.2461H13.5173H14.0173V35.3737V38.6955V39.1955H13.5173H11.2461H10.7461V38.6955V35.3737V34.8737ZM11.7461 35.8737V38.1955H13.0173V35.8737H11.7461Z" fill="#221C35"/>
</svg>
