<svg width="55" height="54" viewBox="0 0 55 54" fill="none" xmlns="http://www.w3.org/2000/svg">
<path fill-rule="evenodd" clip-rule="evenodd" d="M5 4.49997H5.5H49.5H50V4.99997V20.2098V24.7366V25.2366H49.5H28.0913V43.9732H49.5V44.9732H27.642L5.60037 49.4898L5.39963 48.5101L27.0913 44.0653V24.9994L5.21646 9.93855L5 9.78952V9.52672V4.99997V4.49997ZM28.0913 24.2366H49V20.7098H28.0913V24.2366ZM27.7468 19.7098H49V5.49997H7.10791L27.7468 19.7098ZM6 5.95127V9.26392L27.0913 23.7853V20.4726L6 5.95127ZM16.4544 27.6538L16.8064 28.003L19.9102 31.0812L19.206 31.7912L16.9544 29.5581V36.8683H15.9544V29.5581L13.7027 31.7912L12.9985 31.0812L16.1023 28.003L16.4544 27.6538ZM39.4585 27.6538L39.8106 28.003L42.9143 31.0812L42.2102 31.7912L39.9585 29.5581V36.8683H38.9585V29.5581L36.7069 31.7912L36.0027 31.0812L39.1064 28.003L39.4585 27.6538Z" fill="#221C35"/>
</svg>
