<svg width="55" height="54" viewBox="0 0 55 54" fill="none" xmlns="http://www.w3.org/2000/svg">
<path fill-rule="evenodd" clip-rule="evenodd" d="M9.0339 4.5H9.5339H27.5H45.4661H45.9661V5V25.7874V44.689H47.5H48V45.189V49V49.5H47.5H7.5H7V49V45.189V44.689H7.5H9.0339V25.7874V5V4.5ZM10.0339 44.689H27V26.2874H10.0339V44.689ZM10.0339 25.2874H27V5.5H10.0339V25.2874ZM28 5.5V25.2874H44.9661V5.5H28ZM44.9661 26.2874H28V44.689H44.9661V26.2874ZM14.1999 14.0812L18.2677 7.84494L19.1052 8.39128L15.0374 14.6275L14.1999 14.0812ZM17.245 14.4365L19.6179 10.6255L20.4668 11.154L18.0939 14.9651L17.245 14.4365ZM32.5154 36.9319L36.9222 30.6957L37.7388 31.2728L33.3321 37.509L32.5154 36.9319ZM35.8891 37.6491L38.262 33.8381L39.1109 34.3666L36.738 38.1777L35.8891 37.6491ZM8 45.689V48.5H47V45.689H45.4661H27.5H9.5339H8Z" fill="#221C35"/>
</svg>
