<svg width="55" height="54" viewBox="0 0 55 54" fill="none" xmlns="http://www.w3.org/2000/svg">
<path fill-rule="evenodd" clip-rule="evenodd" d="M6.21724 11H6.71724H48.4577H48.9577V11.5V35.2004H51.7484H54H54.5V35.7004V42.4994V42.9994H54H51.7484H49.1505H48.4577H46.2061H38.2391H37.5463H35.4679H31.8832H30.0741H21.2411H19.419H15.8844H12.5936H5.50486H3.2533H1.00174H0.501736V42.4994V35.7004V35.2004H1.00174H3.2533H5.50486H6.21724V25.066V11.5V11ZM48.9577 36.2004V41.9994H49.1505H51.2484V36.2004H48.9577ZM52.2484 36.2004V41.9994H53.5V36.2004H52.2484ZM47.9577 41.9994V35.7004V12H7.21724V25.066V35.7004V36.2004H6.71724H6.00486V41.9994H12.0103L11.7142 40.0855H9.26866H8.76866V39.5855V25.2755C8.57347 25.0896 8.37268 24.9228 8.16633 24.7767L7.60845 24.3815L8.15408 23.9696C8.32563 23.8401 8.54008 23.7689 8.76866 23.7391V14.6807V14.1807H9.26866H34.9483H35.4483V14.6807V39.5855V40.0855H34.9483H29.8558L32.0694 41.9994H35.4679H37.5463H37.7391V14.6807V14.1807H38.2391H46.2061H46.7061V14.6807V41.9994H47.9577ZM45.7061 41.9994V15.1807H38.7391V41.9994H45.7061ZM30.5404 41.9994L28.3269 40.0855H28.3223H28.3124H28.3024H28.2924H28.2823H28.2722H28.2621H28.252H28.2418H28.2316H28.2213H28.211H28.2007H28.1903H28.1799H28.1695H28.159H28.1485H28.138H28.1274H28.1168H28.1062H28.0955H28.0848H28.0741H28.0634H28.0526H28.0417H28.0309H28.02H28.0091H27.9981H27.9872H27.9761H27.9651H27.954H27.9429H27.9318H27.9206H27.9095H27.8982H27.887H27.8757H27.8644H27.8531H27.8417H27.8303H27.8189H27.8075H27.796H27.7845H27.773H27.7614H27.7498H27.7382H27.7266H27.7149H27.7032H27.6915H27.6798H27.668H27.6562H27.6444H27.6326H27.6207H27.6088H27.5969H27.585H27.573H27.561H27.549H27.537H27.5249H27.5129H27.5008H27.4886H27.4765H27.4643H27.4521H27.4399H27.4277H27.4154H27.4032H27.3909H27.3786H27.3662H27.3539H27.3415H27.3291H27.3167H27.3042H27.2918H27.2793H27.2668H27.2543H27.2418H27.2292H27.2166H27.2041H27.1914H27.1788H27.1662H27.1535H27.1408H27.1282H27.1154H27.1027H27.09H27.0772H27.0644H27.0516H27.0388H27.026H27.0132H27.0003H26.9875H26.9746H26.9617H26.9488H26.9358H26.9229H26.9099H26.897H26.884H26.871H26.858H26.845H26.8319H26.8189H26.8058H26.7928H26.7797H26.7666H26.7535H26.7404H26.7273H26.7141H26.701H26.6878H26.6746H26.6615H26.6483H26.6351H26.6219H26.6086H26.5954H26.5822H26.5689H26.5557H26.5424H26.5291H26.5159H26.5026H26.4893H26.476H26.4627H26.4494H26.436H26.4227H26.4094H26.396H26.3827H26.3693H26.356H26.3426H26.3292H26.3159H26.3025H26.2891H26.2757H26.2623H26.2489H26.2355H26.2221H26.2087H26.1953H26.1818H26.1684H26.155H26.1416H26.1281H26.1147H26.1013H26.0878H26.0744H26.061H26.0475H26.0341H26.0206H26.0072H25.9937H25.9803H25.9669H25.9534H25.94H25.9265H25.9131H25.8996H25.8862H25.8727H25.8593H25.8459H25.8324H25.819H25.8056H25.7921H25.7787H25.7653H25.7519H25.7384H25.725H25.7116H25.6982H25.6848H25.6714H25.658H25.6446H25.6312H25.6178H25.6044H25.5911H25.5777H25.5643H25.551H25.5376H25.5243H25.5109H25.4976H25.4843H25.471H25.4576H25.4443H25.431H25.4177H25.4045H25.3912H25.3779H25.3647H25.3514H25.3382H25.3249H25.3117H25.2985H25.2853H25.2721H25.2589H25.2457H25.2326H25.2194H25.2063H25.1931H25.18H25.1669H25.1538H25.1407H25.1276H25.1146H25.1015H25.0885H25.0755H25.0624H25.0494H25.0365H25.0235H25.0105H24.9976H24.9846H24.9717H24.9588H24.9459H24.933H24.9202H24.9073H24.8945H24.8817H24.8689H24.8561H24.8433H24.8306H24.8178H24.8051H24.7924H24.7797H24.7671H24.7544H24.7418H24.7292H24.7166H24.704H24.6914H24.6789H24.6664H24.6538H24.6414H24.6289H24.6164H24.604H24.5916H24.5792H24.5668H24.5545H24.5422H24.5299H24.5176H24.5053H24.4931H24.4808H24.4686H24.4565H24.4443H24.4322H24.4201H24.408H24.3959H24.3839H24.3718H24.3598H24.3479H24.3359H24.324H24.3121H24.3002H24.2884H24.2765H24.2647H24.2529H24.2412H24.2295H24.2178H24.2061H24.1944H24.1828H24.1712H24.1596H24.1481H24.1366H24.1251H24.1136H24.1022H24.0908H24.0794H24.0681H24.0567H24.0455H24.0342H24.0229H24.0117H24.0006H23.9894H23.9783H23.9672H23.9562H23.9451H23.9341H23.9232H23.9122H23.9013H23.8904H23.8796H23.8688H23.858H23.8473H23.8366H23.8259H23.8152H23.8046H23.794H23.7835H23.773H23.7625H23.752H23.7416H23.7312H23.7209H23.7106H23.7003H23.69H23.6798H23.6697H23.6595H23.6494H23.6393H23.6293H23.6193H23.6094H23.5994H23.5896H23.5797H23.5699H23.5601H23.5504H23.5407H23.531H23.5214H23.5118H23.5023H23.4928H23.4833H23.4739H23.4645H23.4551H23.4458H23.4366H23.4273H23.4181H23.409H23.3999H23.3908H23.3818H23.3728H23.3638H23.3549H23.3461H23.3373H23.3285H23.3197H23.311H23.3024H23.2938H23.2852H23.2767H23.2682H23.2598H23.2514H23.243H23.2347H23.2265H23.2183H23.2101H23.202H23.1939H23.1859H23.1779H23.1699H23.162H23.1542H23.1464H23.1386H23.1309H23.1233H23.1156H23.1081H23.1005H23.0931H23.0856H23.0783H23.0709H23.0637H23.0564H23.0492H23.0421H23.035H23.028H23.021H23.0141H23.0072H23.0003H22.9935H22.9868H22.9801H22.9753L20.7618 41.9994H21.2411H30.0741H30.5404ZM19.2328 41.9994L21.4464 40.0855H16.7976V39.9889L16.4719 41.9994H19.2328ZM15.4589 41.9994L15.8628 39.5056L15.8631 39.5038L16.006 38.641H14.8636H13.6512H13.1317H12.5026L12.6369 39.5091L13.0222 41.9994H15.4589ZM16.946 39.0855H21.3041C21.1856 38.8004 21.1297 38.4905 21.105 38.2069C20.7158 38.0852 20.4231 37.8182 20.2271 37.4894C19.9708 37.0594 19.8751 36.5253 19.8751 36.0348V36.0307V36.0266V36.0224V36.0182V36.014V36.0097V36.0055V36.0011V35.9968V35.9924V35.988V35.9836V35.9791V35.9746V35.9701V35.9656V35.961V35.9564V35.9518V35.9471V35.9424V35.9377V35.933V35.9282V35.9234V35.9185V35.9137V35.9088V35.9039V35.8989V35.894V35.889V35.884V35.8789V35.8738V35.8687V35.8636V35.8584V35.8533V35.848V35.8428V35.8376V35.8323V35.827V35.8216V35.8162V35.8109V35.8054V35.8V35.7945V35.789V35.7835V35.778V35.7724V35.7668V35.7612V35.7556V35.7499V35.7442V35.7385V35.7328V35.727V35.7212V35.7154V35.7096V35.7037V35.6978V35.6919V35.686V35.6801V35.6741V35.6681V35.6621V35.656V35.65V35.6439V35.6378V35.6317V35.6255V35.6193V35.6131V35.6069V35.6007V35.5944V35.5881V35.5818V35.5755V35.5692V35.5628V35.5564V35.55V35.5436V35.5371V35.5307V35.5242V35.5177V35.5111V35.5046V35.498V35.4914V35.4848V35.4782V35.4715V35.4649V35.4582V35.4515V35.4448V35.438V35.4312V35.4245V35.4177V35.4108V35.404V35.3972V35.3903V35.3834V35.3765V35.3696V35.3626V35.3556V35.3487V35.3417V35.3347V35.3276V35.3206V35.3135V35.3064V35.2993V35.2922V35.2851V35.2779V35.2708V35.2636V35.2564V35.2492V35.2419V35.2347V35.2274V35.2202V35.2129V35.2056V35.1982V35.1909V35.1835V35.1762V35.1688V35.1614V35.154V35.1466V35.1391V35.1317V35.1242V35.1167V35.1092V35.1017V35.0942V35.0867V35.0791V35.0715V35.064V35.0564V35.0488V35.0411V35.0335V35.0259V35.0182V35.0106V35.0029V34.9952V34.9875V34.9798V34.972V34.9643V34.9565V34.9488V34.941V34.9332V34.9254V34.9176V34.9098V34.902V34.8941V34.8863V34.8784V34.8705V34.8627V34.8548V34.8469V34.8389V34.831V34.8231V34.8151V34.8072V34.7992V34.7913V34.7833V34.7753V34.7673V34.7593V34.7513V34.7432V34.7352V34.7271V34.7191V34.711V34.703V34.6949V34.6868V34.6787V34.6706V34.6625V34.6544V34.6463V34.6381V34.63V34.6219V34.6137V34.6055V34.5974V34.5892V34.581V34.5728V34.5646V34.5564V34.5482V34.54V34.5318V34.5236V34.5154V34.5071V34.4989V34.4907V34.4824V34.4741V34.4659V34.4576V34.4494V34.4411V34.4328V34.4245V34.4162V34.4079V34.3996V34.3913V34.383V34.3747V34.3664V34.3581V34.3498V34.3415V34.3331V34.3248V34.3165V34.3081V34.2998V34.2915V34.2831V34.2748V34.2664V34.2581V34.2497V34.2414V34.233V34.2246V34.2163V34.2079V34.1996V34.1912V34.1828V34.1745V34.1661V34.1577V34.1493V34.141V34.1326V34.1242V34.1159V34.1075V34.0991V34.0907V34.0824V34.074V34.0656V34.0572V34.0489V34.0405V34.0321V34.0237V34.0154V34.007V33.9986V33.9903V33.9819V33.9735V33.9652V33.9568V33.9484V33.9401V33.9317V33.9234V33.915V33.9067V33.8983V33.89V33.8816V33.8733V33.865V33.8566V33.8483V33.84V33.8316V33.8233V33.815V33.8067V33.7984V33.7901V33.7818V33.7735V33.7652V33.7569V33.7486V33.7403V33.732V33.7238V33.7155V33.7072V33.699V33.6907V33.6825V33.6742V33.666V33.6578V33.6495V33.6413V33.6331V33.6249V33.6167V33.6085V33.6003V33.5921V33.5839V33.5758V33.5676V33.5594V33.5513V33.5431V33.535V33.5269V33.5188V33.5106V33.5025V33.4944V33.4864V33.4783V33.4702V33.4621V33.4541V33.446V33.438V33.4299V33.4219V33.4139V33.4059V33.3979V33.3899V33.3819V33.374V33.366V33.358V33.3501V33.3422V33.3343V33.3263V33.3184V33.3106V33.3027V33.2948V33.2869V33.2791V33.2713V33.2634V33.2556V33.2478V33.24V33.2322V33.2245V33.2167V33.2089V33.2012V33.1935V33.1858V33.1781V33.1704V33.1627V33.155V33.1474V33.1397V33.1321V33.1245V33.1169V33.1093V33.1017V33.0942V33.0866V33.0791V33.0716V33.0641V33.0566V33.0491V33.0416V33.0342V33.0268V33.0193V33.0119V33.0045V32.9971V32.9898V32.9824V32.9751V32.9678V32.9605V32.9532V32.9459V32.9387V32.9314V32.9242V32.917V32.9098V32.9026V32.8955V32.8883V32.8812V32.8741V32.867V32.8599V32.8528V32.8458V32.8388V32.8317V32.8248V32.8178V32.8108V32.8039V32.797V32.79V32.7832V32.7763V32.7694V32.7626V32.7558V32.749V32.7422V32.7355V32.7287V32.722V32.7153V32.7086V32.702V32.6953V32.6887V32.6821V32.6755V32.6689V32.6624V32.6559V32.6494V32.6429V32.6364V32.63V32.6235V32.6171V32.6108V32.6044V32.5981V32.5917V32.5854V32.5792V32.5729V32.5667V32.5605V32.5543V32.5481V32.542V32.5358V32.5297V32.5237V32.5176V32.5116V32.5056V32.4996V32.4936V32.4877V32.4817V32.4758V32.47V32.4641V32.4583V32.4525V32.4467V32.4409V32.4352V32.4295V32.4238V32.4182V32.4125V32.4069V32.4013V32.3958V32.3902V32.3847V32.3792V32.3738V31.8738H20.3751H21.6071V30.1074V29.6074H22.1071H28.8618H29.3618V30.1074V31.8738H30.5937H31.0937V32.3738V36.0348C31.0937 36.3467 31.0341 36.8201 30.8433 37.2523C30.6948 37.5885 30.4408 37.9508 30.0321 38.1471C29.9887 38.4999 29.8857 38.8167 29.7508 39.0855H34.4483V15.1807H9.76866V23.8183C10.2944 23.9498 10.8871 24.2213 11.4817 24.6654C12.208 25.2079 12.9413 26.0107 13.569 27.1437C13.737 27.4469 13.8973 27.7735 14.0479 28.125C14.7563 26.7316 15.6031 25.5636 16.4419 24.7146C17.2737 23.8726 18.1666 23.2748 18.9579 23.1752L19.9982 23.0443L19.4451 23.9351C19.292 24.1817 19.0298 24.6503 18.7075 25.2908C18.0191 26.6585 17.0765 28.7704 16.3591 31.0943C15.689 33.2649 15.2272 35.5839 15.3293 37.641H16.5956H17.1852L17.0889 38.2227L16.946 39.0855ZM14.3282 37.641C14.2275 35.4268 14.7244 32.9994 15.4036 30.7994C16.1415 28.409 17.108 26.2444 17.8142 24.8412C17.8199 24.8299 17.8255 24.8187 17.8312 24.8075C17.6166 24.9758 17.3893 25.1785 17.1533 25.4174C16.1999 26.3824 15.2029 27.8387 14.4589 29.6173L13.9346 30.8707L13.5213 29.5764C13.2806 28.8225 12.9986 28.1776 12.6943 27.6283C12.1302 26.6101 11.488 25.9183 10.8833 25.4666C10.4808 25.166 10.0966 24.9728 9.76276 24.8587C10.3525 25.4888 10.8687 26.2459 11.3188 27.0694C12.434 29.1096 13.178 31.6204 13.6216 33.8009C13.9263 35.2987 14.094 36.6641 14.1389 37.641H14.3282ZM13.1377 37.641C13.0929 36.735 12.935 35.4418 12.6417 34.0003C12.2085 31.8709 11.49 29.4675 10.4414 27.5491C10.2292 27.161 10.005 26.7953 9.76866 26.4574V39.0855H11.5595L11.4252 38.2175L11.336 37.641H11.9193H13.1317H13.1377ZM28.4934 39.0855C28.5015 39.0809 28.5129 39.0737 28.5276 39.063C28.5871 39.0196 28.6682 38.9397 28.7507 38.8186C28.9144 38.5782 29.0546 38.2173 29.0546 37.7781V37.7749V37.7716V37.7683V37.7651V37.7618V37.7585V37.7552V37.752V37.7487V37.7454V37.7421V37.7388V37.7356V37.7323V37.729V37.7257V37.7224V37.7191V37.7159V37.7126V37.7093V37.706V37.7027V37.6994V37.6961V37.6928V37.6896V37.6863V37.683V37.6797V37.6764V37.6731V37.6698V37.6665V37.6632V37.6599V37.6566V37.6533V37.65V37.6467V37.6434V37.6401V37.6368V37.6335V37.6302V37.6269V37.6237V37.6204V37.6171V37.6138V37.6105V37.6072V37.6039V37.6006V37.5973V37.594V37.5907V37.5874V37.5841V37.5808V37.5775V37.5742V37.5709V37.5676V37.5643V37.561V37.5577V37.5544V37.5511V37.5478V37.5445V37.5412V37.5379V37.5346V37.5313V37.528V37.5247V37.5214V37.5181V37.5148V37.5115V37.5082V37.5049V37.5017V37.4984V37.4951V37.4918V37.4885V37.4852V37.4819V37.4786V37.4753V37.472V37.4688V37.4655V37.4622V37.4589V37.4556V37.4523V37.4491V37.4458V37.4425V37.4392V37.4359V37.4327V37.4294V37.4261V37.4228V37.4196V37.4163V37.413V37.4097V37.4065V37.4032V37.3999V37.3967V37.3934V37.3901V37.3869V37.3836V37.3803V37.3771V37.3738V37.3706V37.3673V37.3641V37.3608V37.3576V37.3543V37.3511V37.3478V37.3446V37.3413V37.3381V37.3348V37.3316V37.3283V37.3251V37.3219V37.3186V37.3154V37.3122V37.3089V37.3057V37.3025V37.2993V37.296V37.2928V37.2896V37.2864V37.2832V37.2799V37.2767V37.2735V37.2703V37.2671V37.2639V37.2607V37.2575V37.2543V37.2511V37.2479V37.2447V37.2415V37.2383V37.2351V37.2319V37.2287V37.2256V37.2224V37.2192V37.216V37.2129V37.2097V37.2065V37.2033V37.2002V37.197V37.1939V37.1907V37.1875V37.1844V37.1812V37.1781V37.1749V37.1718V37.1687V37.1655V37.1624V37.1592V37.1561V37.153V37.1499V37.1467V37.1436V37.1405V37.1374V37.1343V37.1311V37.128V37.1249V37.1218V37.1187V37.1156V37.1125V37.1094V37.1064V37.1033V37.1002V37.0971V37.094V37.091V37.0879V37.0848V37.0817V37.0787V37.0756V37.0726V37.0695V37.0665V37.0634V37.0604V37.0573V37.0543V37.0512V37.0482V37.0452V37.0421V37.0391V37.0361V37.0331V37.0301V37.0271V37.0241V37.0211V37.0181V37.0151V37.0121V37.0091V37.0061V37.0031V37.0001V36.9971V36.9942V36.9912V36.9882V36.9853V36.9823V36.9794V36.9764V36.9735V36.9705V36.9676V36.9646V36.9617V36.9588V36.9558V36.9529V36.95V36.9471V36.9442V36.9413V36.9384V36.9355V36.9326V36.9297V36.9268V36.9239V36.921V36.9181V36.9153V36.9124V36.9095V36.9067V36.9038V36.901V36.8981V36.8953V36.8924V36.8896V36.8868V36.8839V36.8811V36.8783V36.8755V36.8727V36.8699V36.8671V36.8643V36.8615V36.8587V36.8559V36.8531V36.8504V36.8476V36.8448V36.8421V36.8393V36.8365V36.8338V36.831V36.8283V36.8256V36.8228V36.8201V36.8174V36.8147V36.812V36.8093V36.8066V36.8039V36.8012V36.7985V36.7958V36.7931V36.7904V36.7878V36.7851V36.7825V36.7798V36.7772V36.7745V36.7719V36.7692V36.7666V36.764V36.7614V36.7587V36.7561V36.7535V36.7509V36.7483V36.7458V36.7432V36.7406V36.738V36.7355V36.7329V36.7303V36.7278V36.7252V36.7227V36.7202V36.7176V36.7151V36.7126V36.7101V36.7076V36.705V36.7026V36.7001V36.6976V36.6951V36.6926V36.6901V36.6877V36.6852V36.6828V36.6803V36.6779V36.6754V36.673V36.6706V36.6682V36.6657V36.6633V36.6609V36.6585V36.6561V36.6538V36.6514V36.649V36.6466V36.6443V36.6419V36.6396V36.6372V36.6349V36.6326V36.6302V36.6279V36.6256V36.6233V36.621V36.6187V36.6164V36.6141V36.6119V36.6096V36.6073V36.6051V36.6028V36.6006V36.5983V36.5961V36.5939V36.5916V36.5894V36.5872V36.585V36.5828V36.5806V36.5785V36.5763V36.5741V36.5719V36.5698V36.5676V36.5655V36.5634V36.5612V36.5591V36.557V36.5549V36.5528V36.5507V36.5486V36.5465V36.5444V36.5424V36.5403V36.5382V36.5362V36.5342V36.5321V36.5301V36.5281V36.5261V36.524V36.522V36.5201V36.5181V36.5161V36.5141V36.5121V36.5102V36.5082V36.5063V36.5044V36.5024V36.5005V36.4986V36.4967V36.4948V36.4929V36.491V36.4891V36.4872V36.4854V36.4835V36.4817V36.4798V36.478V36.4762V36.4743V36.4725V36.4707V36.4689V36.4671V36.4654V36.4636V36.4618V36.4601V36.4583V36.4566V36.4548V36.4531V36.4514V36.4497V36.4479V36.4462V36.4446V36.4429V36.4412V36.4395V36.4379V36.4362V36.4346V36.4329V36.4313V36.4297V36.4281V36.4265V36.4249V36.4233V36.4217V36.4201V36.4186V36.417V36.4155V36.4139V36.4124V36.4109V36.4093V36.4078V36.4063V36.4048V36.4034V36.4019V36.4004V36.399V36.3975V36.3961V36.3946V36.3932V36.3918V36.3904V36.389V36.3876V36.3862V36.3848V36.3835C29.0546 36.3716 29.0523 36.3449 29.0432 36.313C29.0344 36.2817 29.0221 36.2563 29.0093 36.2385C28.9979 36.2225 28.9866 36.213 28.9734 36.2061C28.9607 36.1995 28.9284 36.1861 28.8618 36.1861H28.8585H28.8551H28.8516H28.8481H28.8445H28.8408H28.837H28.8332H28.8292H28.8252H28.8211H28.8169H28.8126H28.8083H28.8039H28.7994H28.7948H28.7901H28.7854H28.7806H28.7757H28.7707H28.7656H28.7605H28.7553H28.75H28.7447H28.7393H28.7337H28.7282H28.7225H28.7168H28.711H28.7051H28.6991H28.6931H28.687H28.6808H28.6746H28.6682H28.6618H28.6554H28.6488H28.6422H28.6355H28.6288H28.622H28.6151H28.6081H28.601H28.5939H28.5868H28.5795H28.5722H28.5648H28.5574H28.5498H28.5422H28.5346H28.5269H28.5191H28.5112H28.5033H28.4953H28.4872H28.4791H28.4709H28.4626H28.4543H28.4459H28.4375H28.4289H28.4204H28.4117H28.403H28.3942H28.3854H28.3765H28.3675H28.3585H28.3494H28.3402H28.331H28.3218H28.3124H28.303H28.2936H28.284H28.2745H28.2648H28.2551H28.2454H28.2356H28.2257H28.2157H28.2058H28.1957H28.1856H28.1754H28.1652H28.1549H28.1446H28.1342H28.1237H28.1132H28.1027H28.0921H28.0814H28.0706H28.0599H28.049H28.0381H28.0272H28.0162H28.0051H27.994H27.9829H27.9717H27.9604H27.9491H27.9377H27.9263H27.9148H27.9033H27.8917H27.8801H27.8684H27.8567H27.8449H27.8331H27.8212H27.8093H27.7973H27.7853H27.7732H27.7611H27.7489H27.7367H27.7245H27.7122H27.6998H27.6874H27.675H27.6625H27.6499H27.6373H27.6247H27.612H27.5993H27.5865H27.5737H27.5609H27.548H27.5351H27.5221H27.509H27.496H27.4829H27.4697H27.4565H27.4433H27.43H27.4167H27.4033H27.3899H27.3765H27.363H27.3495H27.3359H27.3223H27.3087H27.295H27.2813H27.2676H27.2538H27.2399H27.2261H27.2122H27.1982H27.1843H27.1702H27.1562H27.1421H27.128H27.1138H27.0996H27.0854H27.0712H27.0569H27.0425H27.0282H27.0138H26.9993H26.9849H26.9704H26.9558H26.9413H26.9267H26.9121H26.8974H26.8827H26.868H26.8533H26.8385H26.8237H26.8088H26.794H26.7791H26.7641H26.7492H26.7342H26.7192H26.7041H26.6891H26.674H26.6588H26.6437H26.6285H26.6133H26.5981H26.5828H26.5675H26.5522H26.5369H26.5215H26.5061H26.4907H26.4753H26.4598H26.4443H26.4288H26.4133H26.3978H26.3822H26.3666H26.351H26.3353H26.3197H26.304H26.2883H26.2726H26.2568H26.241H26.2252H26.2094H26.1936H26.1778H26.1619H26.146H26.1301H26.1142H26.0983H26.0823H26.0663H26.0503H26.0343H26.0183H26.0023H25.9862H25.9701H25.954H25.9379H25.9218H25.9057H25.8895H25.8734H25.8572H25.841H25.8248H25.8086H25.7923H25.7761H25.7598H25.7435H25.7273H25.711H25.6947H25.6783H25.662H25.6457H25.6293H25.613H25.5966H25.5802H25.5638H25.5474H25.531H25.5146H25.4982H25.4817H25.4653H25.4488H25.4324H25.4159H25.3994H25.383H25.3665H25.35H25.3335H25.317H25.3005H25.284H25.2674H25.2509H25.2344H25.2179H25.2013H25.1848H25.1683H25.1517H25.1352H25.1186H25.1021H25.0855H25.0689H25.0524H25.0358H25.0193H25.0027H24.9861H24.9696H24.953H24.9365H24.9199H24.9033H24.8868H24.8702H24.8537H24.8371H24.8206H24.804H24.7875H24.7709H24.7544H24.7378H24.7213H24.7048H24.6882H24.6717H24.6552H24.6387H24.6222H24.6057H24.5892H24.5727H24.5562H24.5397H24.5233H24.5068H24.4904H24.4739H24.4575H24.441H24.4246H24.4082H24.3918H24.3754H24.359H24.3426H24.3262H24.3099H24.2935H24.2772H24.2609H24.2446H24.2283H24.212H24.1957H24.1794H24.1632H24.1469H24.1307H24.1145H24.0983H24.0821H24.0659H24.0497H24.0336H24.0175H24.0013H23.9852H23.9691H23.9531H23.937H23.921H23.905H23.889H23.873H23.857H23.841H23.8251H23.8092H23.7933H23.7774H23.7615H23.7457H23.7299H23.7141H23.6983H23.6825H23.6668H23.6511H23.6354H23.6197H23.604H23.5884H23.5728H23.5572H23.5416H23.5261H23.5105H23.495H23.4796H23.4641H23.4487H23.4333H23.4179H23.4025H23.3872H23.3719H23.3566H23.3414H23.3262H23.311H23.2958H23.2806H23.2655H23.2504H23.2354H23.2203H23.2053H23.1903H23.1754H23.1605H23.1456H23.1307H23.1159H23.1011H23.0863H23.0715H23.0568H23.0422H23.0275H23.0129H22.9983H22.9837H22.9692H22.9547H22.9403H22.9259H22.9115H22.8971H22.8828H22.8685H22.8542H22.84H22.8258H22.8117H22.7976H22.7835H22.7695H22.7555H22.7415H22.7276H22.7137H22.6998H22.686H22.6722H22.6584H22.6447H22.6311H22.6174H22.6039H22.5903H22.5768H22.5633H22.5499H22.5365H22.5232H22.5098H22.4966H22.4833H22.4702H22.457H22.4439H22.4309H22.4178H22.4049H22.3919H22.3791H22.3662H22.3534H22.3407H22.3279H22.3153H22.3027H22.2901H22.2776H22.2651H22.2526H22.2402H22.2279H22.2156H22.2034H22.1912H22.179H22.1669H22.1548H22.1428H22.1309H22.1288C22.1262 36.1889 22.119 36.1978 22.111 36.2185C22.1011 36.2445 22.0875 36.2957 22.0875 36.3835V36.3852V36.3869V36.3886V36.3903V36.392V36.3937V36.3954V36.3972V36.3989V36.4006V36.4024V36.4041V36.4059V36.4077V36.4094V36.4112V36.413V36.4148V36.4166V36.4184V36.4202V36.422V36.4238V36.4256V36.4275V36.4293V36.4311V36.433V36.4348V36.4367V36.4386V36.4404V36.4423V36.4442V36.4461V36.448V36.4499V36.4518V36.4537V36.4556V36.4575V36.4594V36.4614V36.4633V36.4652V36.4672V36.4691V36.4711V36.4731V36.475V36.477V36.479V36.481V36.483V36.4849V36.4869V36.489V36.491V36.493V36.495V36.497V36.4991V36.5011V36.5031V36.5052V36.5072V36.5093V36.5114V36.5134V36.5155V36.5176V36.5197V36.5218V36.5239V36.526V36.5281V36.5302V36.5323V36.5344V36.5365V36.5387V36.5408V36.5429V36.5451V36.5472V36.5494V36.5515V36.5537V36.5559V36.5581V36.5602V36.5624V36.5646V36.5668V36.569V36.5712V36.5734V36.5756V36.5779V36.5801V36.5823V36.5845V36.5868V36.589V36.5913V36.5935V36.5958V36.598V36.6003V36.6026V36.6049V36.6071V36.6094V36.6117V36.614V36.6163V36.6186V36.6209V36.6232V36.6256V36.6279V36.6302V36.6325V36.6349V36.6372V36.6396V36.6419V36.6443V36.6466V36.649V36.6514V36.6537V36.6561V36.6585V36.6609V36.6633V36.6657V36.6681V36.6705V36.6729V36.6753V36.6777V36.6801V36.6826V36.685V36.6874V36.6899V36.6923V36.6948V36.6972V36.6997V36.7021V36.7046V36.7071V36.7095V36.712V36.7145V36.717V36.7195V36.722V36.7245V36.727V36.7295V36.732V36.7345V36.737V36.7396V36.7421V36.7446V36.7471V36.7497V36.7522V36.7548V36.7573V36.7599V36.7624V36.765V36.7676V36.7702V36.7727V36.7753V36.7779V36.7805V36.7831V36.7857V36.7883V36.7909V36.7935V36.7961V36.7987V36.8013V36.8039V36.8066V36.8092V36.8118V36.8145V36.8171V36.8198V36.8224V36.8251V36.8277V36.8304V36.833V36.8357V36.8384V36.8411V36.8437V36.8464V36.8491V36.8518V36.8545V36.8572V36.8599V36.8626V36.8653V36.868V36.8707V36.8734V36.8762V36.8789V36.8816V36.8843V36.8871V36.8898V36.8926V36.8953V36.8981V36.9008V36.9036V36.9063V36.9091V36.9119V36.9146V36.9174V36.9202V36.923V36.9257V36.9285V36.9313V36.9341V36.9369V36.9397V36.9425V36.9453V36.9481V36.9509V36.9537V36.9566V36.9594V36.9622V36.965V36.9679V36.9707V36.9735V36.9764V36.9792V36.9821V36.9849V36.9878V36.9906V36.9935V36.9964V36.9992V37.0021V37.005V37.0078V37.0107V37.0136V37.0165V37.0194V37.0223V37.0252V37.028V37.0309V37.0338V37.0368V37.0397V37.0426V37.0455V37.0484V37.0513V37.0542V37.0572V37.0601V37.063V37.0659V37.0689V37.0718V37.0748V37.0777V37.0807V37.0836V37.0865V37.0895V37.0925V37.0954V37.0984V37.1013V37.1043V37.1073V37.1103V37.1132V37.1162V37.1192V37.1222V37.1252V37.1281V37.1311V37.1341V37.1371V37.1401V37.1431V37.1461V37.1491V37.1521V37.1552V37.1582V37.1612V37.1642V37.1672V37.1702V37.1733V37.1763V37.1793V37.1824V37.1854V37.1884V37.1915V37.1945V37.1975V37.2006V37.2036V37.2067V37.2097V37.2128V37.2159V37.2189V37.222V37.225V37.2281V37.2312V37.2342V37.2373V37.2404V37.2435V37.2465V37.2496V37.2527V37.2558V37.2589V37.262V37.2651V37.2682V37.2712V37.2743V37.2774V37.2805V37.2836V37.2867V37.2899V37.293V37.2961V37.2992V37.3023V37.3054V37.3085V37.3117V37.3148V37.3179V37.321V37.3242V37.3273V37.3304V37.3335V37.3367V37.3398V37.343V37.3461V37.3492V37.3524V37.3555V37.3587V37.3618V37.365V37.3681V37.3713V37.3744V37.3776V37.3808V37.3839V37.3871V37.3902V37.3934V37.3966V37.3997V37.4029V37.4061V37.4093V37.4124V37.4156V37.4188V37.422V37.4251V37.4283V37.4315V37.4347V37.4379V37.4411V37.4442V37.4474V37.4506V37.4538V37.457V37.4602V37.4634V37.4666V37.4698V37.473V37.4762V37.4794V37.4826V37.4858V37.489V37.4922V37.4955V37.4987V37.5019V37.5051V37.5083V37.5115V37.5147V37.518V37.5212V37.5244V37.5276V37.5308V37.5341V37.5373V37.5405V37.5437V37.547V37.5502V37.5534V37.5567V37.5599V37.5631V37.5664V37.5696V37.5728V37.5761V37.5793V37.5825V37.5858V37.589V37.5923V37.5955V37.5987V37.602V37.6052V37.6085V37.6117V37.615V37.6182V37.6215V37.6247V37.628V37.6312V37.6345V37.6377V37.641V37.6442V37.6475V37.6507V37.654V37.6573V37.6605V37.6638V37.667V37.6703V37.6736V37.6768V37.6801V37.6833V37.6866V37.6899V37.6931V37.6964V37.6997V37.7029V37.7062V37.7095V37.7127V37.716V37.7193V37.7225V37.7258V37.7291V37.7323V37.7356V37.7389V37.7421V37.7454V37.7487V37.752V37.7552V37.7585V37.7618V37.765V37.7683V37.7716V37.7749V37.7781C22.0875 38.1384 22.1286 38.4976 22.2494 38.7507C22.3061 38.8697 22.3721 38.9475 22.4443 38.9968C22.5131 39.0437 22.6173 39.0855 22.7891 39.0855H22.7941H22.799H22.804H22.8091H22.8142H22.8194H22.8247H22.83H22.8353H22.8408H22.8462H22.8517H22.8573H22.863H22.8686H22.8744H22.8802H22.886H22.8919H22.8979H22.9039H22.91H22.9161H22.9223H22.9285H22.9347H22.9411H22.9475H22.9539H22.9604H22.9669H22.9735H22.9801H22.9868H22.9935H23.0003H23.0072H23.0141H23.021H23.028H23.035H23.0421H23.0492H23.0564H23.0637H23.0709H23.0783H23.0856H23.0931H23.1005H23.1081H23.1156H23.1233H23.1309H23.1386H23.1464H23.1542H23.162H23.1699H23.1779H23.1859H23.1939H23.202H23.2101H23.2183H23.2265H23.2347H23.243H23.2514H23.2598H23.2682H23.2767H23.2852H23.2938H23.3024H23.311H23.3197H23.3285H23.3373H23.3461H23.3549H23.3638H23.3728H23.3818H23.3908H23.3999H23.409H23.4181H23.4273H23.4366H23.4458H23.4551H23.4645H23.4739H23.4833H23.4928H23.5023H23.5118H23.5214H23.531H23.5407H23.5504H23.5601H23.5699H23.5797H23.5896H23.5994H23.6094H23.6193H23.6293H23.6393H23.6494H23.6595H23.6697H23.6798H23.69H23.7003H23.7106H23.7209H23.7312H23.7416H23.752H23.7625H23.773H23.7835H23.794H23.8046H23.8152H23.8259H23.8366H23.8473H23.858H23.8688H23.8796H23.8904H23.9013H23.9122H23.9232H23.9341H23.9451H23.9562H23.9672H23.9783H23.9894H24.0006H24.0117H24.0229H24.0342H24.0455H24.0567H24.0681H24.0794H24.0908H24.1022H24.1136H24.1251H24.1366H24.1481H24.1596H24.1712H24.1828H24.1944H24.2061H24.2178H24.2295H24.2412H24.2529H24.2647H24.2765H24.2884H24.3002H24.3121H24.324H24.3359H24.3479H24.3598H24.3718H24.3839H24.3959H24.408H24.4201H24.4322H24.4443H24.4565H24.4686H24.4808H24.4931H24.5053H24.5176H24.5299H24.5422H24.5545H24.5668H24.5792H24.5916H24.604H24.6164H24.6289H24.6414H24.6538H24.6664H24.6789H24.6914H24.704H24.7166H24.7292H24.7418H24.7544H24.7671H24.7797H24.7924H24.8051H24.8178H24.8306H24.8433H24.8561H24.8689H24.8817H24.8945H24.9073H24.9202H24.933H24.9459H24.9588H24.9717H24.9846H24.9976H25.0105H25.0235H25.0365H25.0494H25.0624H25.0755H25.0885H25.1015H25.1146H25.1276H25.1407H25.1538H25.1669H25.18H25.1931H25.2063H25.2194H25.2326H25.2457H25.2589H25.2721H25.2853H25.2985H25.3117H25.3249H25.3382H25.3514H25.3647H25.3779H25.3912H25.4045H25.4177H25.431H25.4443H25.4576H25.471H25.4843H25.4976H25.5109H25.5243H25.5376H25.551H25.5643H25.5777H25.5911H25.6044H25.6178H25.6312H25.6446H25.658H25.6714H25.6848H25.6982H25.7116H25.725H25.7384H25.7519H25.7653H25.7787H25.7921H25.8056H25.819H25.8324H25.8459H25.8593H25.8727H25.8862H25.8996H25.9131H25.9265H25.94H25.9534H25.9669H25.9803H25.9937H26.0072H26.0206H26.0341H26.0475H26.061H26.0744H26.0878H26.1013H26.1147H26.1281H26.1416H26.155H26.1684H26.1818H26.1953H26.2087H26.2221H26.2355H26.2489H26.2623H26.2757H26.2891H26.3025H26.3159H26.3292H26.3426H26.356H26.3693H26.3827H26.396H26.4094H26.4227H26.436H26.4494H26.4627H26.476H26.4893H26.5026H26.5159H26.5291H26.5424H26.5557H26.5689H26.5822H26.5954H26.6086H26.6219H26.6351H26.6483H26.6615H26.6746H26.6878H26.701H26.7141H26.7273H26.7404H26.7535H26.7666H26.7797H26.7928H26.8058H26.8189H26.8319H26.845H26.858H26.871H26.884H26.897H26.9099H26.9229H26.9358H26.9488H26.9617H26.9746H26.9875H27.0003H27.0132H27.026H27.0388H27.0516H27.0644H27.0772H27.09H27.1027H27.1154H27.1282H27.1408H27.1535H27.1662H27.1788H27.1914H27.2041H27.2166H27.2292H27.2418H27.2543H27.2668H27.2793H27.2918H27.3042H27.3167H27.3291H27.3415H27.3539H27.3662H27.3786H27.3909H27.4032H27.4154H27.4277H27.4399H27.4521H27.4643H27.4765H27.4886H27.5008H27.5129H27.5249H27.537H27.549H27.561H27.573H27.585H27.5969H27.6088H27.6207H27.6326H27.6444H27.6562H27.668H27.6798H27.6915H27.7032H27.7149H27.7266H27.7382H27.7498H27.7614H27.773H27.7845H27.796H27.8075H27.8189H27.8303H27.8417H27.8531H27.8644H27.8757H27.887H27.8982H27.9095H27.9206H27.9318H27.9429H27.954H27.9651H27.9761H27.9872H27.9981H28.0091H28.02H28.0309H28.0417H28.0526H28.0634H28.0741H28.0848H28.0955H28.1062H28.1168H28.1274H28.138H28.1485H28.159H28.1695H28.1799H28.1903H28.2007H28.211H28.2213H28.2316H28.2418H28.252H28.2621H28.2722H28.2823H28.2924H28.3024H28.3124H28.3223H28.3322H28.3421H28.3519H28.3617H28.3714H28.3811H28.3908H28.4004H28.41H28.4196H28.4291H28.4386H28.4481H28.4575H28.4668H28.4762H28.4855H28.4934ZM30.0546 36.4284C30.0821 36.2818 30.0937 36.1429 30.0937 36.0348V32.8738H29.3618V33.5941H28.3618V32.3738V30.6074H22.6071V32.3738V33.5941H21.6071V32.8738H20.8751V32.8741V32.8812V32.8883V32.8955V32.9026V32.9098V32.917V32.9242V32.9314V32.9387V32.9459V32.9532V32.9605V32.9678V32.9751V32.9824V32.9898V32.9971V33.0045V33.0119V33.0193V33.0268V33.0342V33.0416V33.0491V33.0566V33.0641V33.0716V33.0791V33.0866V33.0942V33.1017V33.1093V33.1169V33.1245V33.1321V33.1397V33.1474V33.155V33.1627V33.1704V33.1781V33.1858V33.1935V33.2012V33.2089V33.2167V33.2245V33.2322V33.24V33.2478V33.2556V33.2634V33.2713V33.2791V33.2869V33.2948V33.3027V33.3106V33.3184V33.3263V33.3343V33.3422V33.3501V33.358V33.366V33.374V33.3819V33.3899V33.3979V33.4059V33.4139V33.4219V33.4299V33.438V33.446V33.4541V33.4621V33.4702V33.4783V33.4864V33.4944V33.5025V33.5106V33.5188V33.5269V33.535V33.5431V33.5513V33.5594V33.5676V33.5758V33.5839V33.5921V33.6003V33.6085V33.6167V33.6249V33.6331V33.6413V33.6495V33.6578V33.666V33.6742V33.6825V33.6907V33.699V33.7072V33.7155V33.7238V33.732V33.7403V33.7486V33.7569V33.7652V33.7735V33.7818V33.7901V33.7984V33.8067V33.815V33.8233V33.8316V33.84V33.8483V33.8566V33.865V33.8733V33.8816V33.89V33.8983V33.9067V33.915V33.9234V33.9317V33.9401V33.9484V33.9568V33.9652V33.9735V33.9819V33.9903V33.9986V34.007V34.0154V34.0237V34.0321V34.0405V34.0489V34.0572V34.0656V34.074V34.0824V34.0907V34.0991V34.1075V34.1159V34.1242V34.1326V34.141V34.1493V34.1577V34.1661V34.1745V34.1828V34.1912V34.1996V34.2079V34.2163V34.2246V34.233V34.2414V34.2497V34.2581V34.2664V34.2748V34.2831V34.2915V34.2998V34.3081V34.3165V34.3248V34.3331V34.3415V34.3498V34.3581V34.3664V34.3747V34.383V34.3913V34.3996V34.4079V34.4162V34.4245V34.4328V34.4411V34.4494V34.4576V34.4659V34.4741V34.4824V34.4907V34.4989V34.5071V34.5154V34.5236V34.5318V34.54V34.5482V34.5564V34.5646V34.5728V34.581V34.5892V34.5974V34.6055V34.6137V34.6219V34.63V34.6381V34.6463V34.6544V34.6625V34.6706V34.6787V34.6868V34.6949V34.703V34.711V34.7191V34.7271V34.7352V34.7432V34.7513V34.7593V34.7673V34.7753V34.7833V34.7913V34.7992V34.8072V34.8151V34.8231V34.831V34.8389V34.8469V34.8548V34.8627V34.8705V34.8784V34.8863V34.8941V34.902V34.9098V34.9176V34.9254V34.9332V34.941V34.9488V34.9565V34.9643V34.972V34.9798V34.9875V34.9952V35.0029V35.0106V35.0182V35.0259V35.0335V35.0411V35.0488V35.0564V35.064V35.0715V35.0791V35.0867V35.0942V35.1017V35.1092V35.1167V35.1242V35.1317V35.1391V35.1466V35.154V35.1614V35.1688V35.1762V35.1835V35.1909V35.1982V35.2056V35.2129V35.2202V35.2274V35.2347V35.2419V35.2492V35.2564V35.2636V35.2708V35.2779V35.2851V35.2922V35.2993V35.3064V35.3135V35.3206V35.3276V35.3347V35.3417V35.3487V35.3556V35.3626V35.3696V35.3765V35.3834V35.3903V35.3972V35.404V35.4108V35.4177V35.4245V35.4312V35.438V35.4448V35.4515V35.4582V35.4649V35.4715V35.4782V35.4848V35.4914V35.498V35.5046V35.5111V35.5177V35.5242V35.5307V35.5371V35.5436V35.55V35.5564V35.5628V35.5692V35.5755V35.5818V35.5881V35.5944V35.6007V35.6069V35.6131V35.6193V35.6255V35.6317V35.6378V35.6439V35.65V35.656V35.6621V35.6681V35.6741V35.6801V35.686V35.6919V35.6978V35.7037V35.7096V35.7154V35.7212V35.727V35.7328V35.7385V35.7442V35.7499V35.7556V35.7612V35.7668V35.7724V35.778V35.7835V35.789V35.7945V35.8V35.8054V35.8109V35.8162V35.8216V35.827V35.8323V35.8376V35.8428V35.848V35.8533V35.8584V35.8636V35.8687V35.8738V35.8789V35.884V35.889V35.894V35.8989V35.9039V35.9088V35.9137V35.9185V35.9234V35.9282V35.933V35.9377V35.9424V35.9471V35.9518V35.9564V35.961V35.9656V35.9701V35.9746V35.9791V35.9836V35.988V35.9924V35.9968V36.0011V36.0055V36.0097V36.014V36.0182V36.0224V36.0266V36.0307V36.0348C20.8751 36.416 20.9526 36.7535 21.086 36.9773C21.0865 36.9781 21.087 36.9789 21.0875 36.9797V36.9792V36.9764V36.9735V36.9707V36.9679V36.965V36.9622V36.9594V36.9566V36.9537V36.9509V36.9481V36.9453V36.9425V36.9397V36.9369V36.9341V36.9313V36.9285V36.9257V36.923V36.9202V36.9174V36.9146V36.9119V36.9091V36.9063V36.9036V36.9008V36.8981V36.8953V36.8926V36.8898V36.8871V36.8843V36.8816V36.8789V36.8762V36.8734V36.8707V36.868V36.8653V36.8626V36.8599V36.8572V36.8545V36.8518V36.8491V36.8464V36.8437V36.8411V36.8384V36.8357V36.833V36.8304V36.8277V36.8251V36.8224V36.8198V36.8171V36.8145V36.8118V36.8092V36.8066V36.8039V36.8013V36.7987V36.7961V36.7935V36.7909V36.7883V36.7857V36.7831V36.7805V36.7779V36.7753V36.7727V36.7702V36.7676V36.765V36.7624V36.7599V36.7573V36.7548V36.7522V36.7497V36.7471V36.7446V36.7421V36.7396V36.737V36.7345V36.732V36.7295V36.727V36.7245V36.722V36.7195V36.717V36.7145V36.712V36.7095V36.7071V36.7046V36.7021V36.6997V36.6972V36.6948V36.6923V36.6899V36.6874V36.685V36.6826V36.6801V36.6777V36.6753V36.6729V36.6705V36.6681V36.6657V36.6633V36.6609V36.6585V36.6561V36.6537V36.6514V36.649V36.6466V36.6443V36.6419V36.6396V36.6372V36.6349V36.6325V36.6302V36.6279V36.6256V36.6232V36.6209V36.6186V36.6163V36.614V36.6117V36.6094V36.6071V36.6049V36.6026V36.6003V36.598V36.5958V36.5935V36.5913V36.589V36.5868V36.5845V36.5823V36.5801V36.5779V36.5756V36.5734V36.5712V36.569V36.5668V36.5646V36.5624V36.5602V36.5581V36.5559V36.5537V36.5515V36.5494V36.5472V36.5451V36.5429V36.5408V36.5387V36.5365V36.5344V36.5323V36.5302V36.5281V36.526V36.5239V36.5218V36.5197V36.5176V36.5155V36.5134V36.5114V36.5093V36.5072V36.5052V36.5031V36.5011V36.4991V36.497V36.495V36.493V36.491V36.489V36.4869V36.4849V36.483V36.481V36.479V36.477V36.475V36.4731V36.4711V36.4691V36.4672V36.4652V36.4633V36.4614V36.4594V36.4575V36.4556V36.4537V36.4518V36.4499V36.448V36.4461V36.4442V36.4423V36.4404V36.4386V36.4367V36.4348V36.433V36.4311V36.4293V36.4275V36.4256V36.4238V36.422V36.4202V36.4184V36.4166V36.4148V36.413V36.4112V36.4094V36.4077V36.4059V36.4041V36.4024V36.4006V36.3989V36.3972V36.3954V36.3937V36.392V36.3903V36.3886V36.3869V36.3852V36.3835C21.0875 35.9948 21.212 35.6814 21.4349 35.466C21.6455 35.2626 21.9041 35.1861 22.1071 35.1861H22.1189H22.1309H22.1428H22.1548H22.1669H22.179H22.1912H22.2034H22.2156H22.2279H22.2402H22.2526H22.2651H22.2776H22.2901H22.3027H22.3153H22.3279H22.3407H22.3534H22.3662H22.3791H22.3919H22.4049H22.4178H22.4309H22.4439H22.457H22.4702H22.4833H22.4966H22.5098H22.5232H22.5365H22.5499H22.5633H22.5768H22.5903H22.6039H22.6174H22.6311H22.6447H22.6584H22.6722H22.686H22.6998H22.7137H22.7276H22.7415H22.7555H22.7695H22.7835H22.7976H22.8117H22.8258H22.84H22.8542H22.8685H22.8828H22.8971H22.9115H22.9259H22.9403H22.9547H22.9692H22.9837H22.9983H23.0129H23.0275H23.0422H23.0568H23.0715H23.0863H23.1011H23.1159H23.1307H23.1456H23.1605H23.1754H23.1903H23.2053H23.2203H23.2354H23.2504H23.2655H23.2806H23.2958H23.311H23.3262H23.3414H23.3566H23.3719H23.3872H23.4025H23.4179H23.4333H23.4487H23.4641H23.4796H23.495H23.5105H23.5261H23.5416H23.5572H23.5728H23.5884H23.604H23.6197H23.6354H23.6511H23.6668H23.6825H23.6983H23.7141H23.7299H23.7457H23.7615H23.7774H23.7933H23.8092H23.8251H23.841H23.857H23.873H23.889H23.905H23.921H23.937H23.9531H23.9691H23.9852H24.0013H24.0175H24.0336H24.0497H24.0659H24.0821H24.0983H24.1145H24.1307H24.1469H24.1632H24.1794H24.1957H24.212H24.2283H24.2446H24.2609H24.2772H24.2935H24.3099H24.3262H24.3426H24.359H24.3754H24.3918H24.4082H24.4246H24.441H24.4575H24.4739H24.4904H24.5068H24.5233H24.5397H24.5562H24.5727H24.5892H24.6057H24.6222H24.6387H24.6552H24.6717H24.6882H24.7048H24.7213H24.7378H24.7544H24.7709H24.7875H24.804H24.8206H24.8371H24.8537H24.8702H24.8868H24.9033H24.9199H24.9365H24.953H24.9696H24.9861H25.0027H25.0193H25.0358H25.0524H25.0689H25.0855H25.1021H25.1186H25.1352H25.1517H25.1683H25.1848H25.2013H25.2179H25.2344H25.2509H25.2674H25.284H25.3005H25.317H25.3335H25.35H25.3665H25.383H25.3994H25.4159H25.4324H25.4488H25.4653H25.4817H25.4982H25.5146H25.531H25.5474H25.5638H25.5802H25.5966H25.613H25.6293H25.6457H25.662H25.6783H25.6947H25.711H25.7273H25.7435H25.7598H25.7761H25.7923H25.8086H25.8248H25.841H25.8572H25.8734H25.8895H25.9057H25.9218H25.9379H25.954H25.9701H25.9862H26.0023H26.0183H26.0343H26.0503H26.0663H26.0823H26.0983H26.1142H26.1301H26.146H26.1619H26.1778H26.1936H26.2094H26.2252H26.241H26.2568H26.2726H26.2883H26.304H26.3197H26.3353H26.351H26.3666H26.3822H26.3978H26.4133H26.4288H26.4443H26.4598H26.4753H26.4907H26.5061H26.5215H26.5369H26.5522H26.5675H26.5828H26.5981H26.6133H26.6285H26.6437H26.6588H26.674H26.6891H26.7041H26.7192H26.7342H26.7492H26.7641H26.7791H26.794H26.8088H26.8237H26.8385H26.8533H26.868H26.8827H26.8974H26.9121H26.9267H26.9413H26.9558H26.9704H26.9849H26.9993H27.0138H27.0282H27.0425H27.0569H27.0712H27.0854H27.0996H27.1138H27.128H27.1421H27.1562H27.1702H27.1843H27.1982H27.2122H27.2261H27.2399H27.2538H27.2676H27.2813H27.295H27.3087H27.3223H27.3359H27.3495H27.363H27.3765H27.3899H27.4033H27.4167H27.43H27.4433H27.4565H27.4697H27.4829H27.496H27.509H27.5221H27.5351H27.548H27.5609H27.5737H27.5865H27.5993H27.612H27.6247H27.6373H27.6499H27.6625H27.675H27.6874H27.6998H27.7122H27.7245H27.7367H27.7489H27.7611H27.7732H27.7853H27.7973H27.8093H27.8212H27.8331H27.8449H27.8567H27.8684H27.8801H27.8917H27.9033H27.9148H27.9263H27.9377H27.9491H27.9604H27.9717H27.9829H27.994H28.0051H28.0162H28.0272H28.0381H28.049H28.0599H28.0706H28.0814H28.0921H28.1027H28.1132H28.1237H28.1342H28.1446H28.1549H28.1652H28.1754H28.1856H28.1957H28.2058H28.2157H28.2257H28.2356H28.2454H28.2551H28.2648H28.2745H28.284H28.2936H28.303H28.3124H28.3218H28.331H28.3402H28.3494H28.3585H28.3675H28.3765H28.3854H28.3942H28.403H28.4117H28.4204H28.4289H28.4375H28.4459H28.4543H28.4626H28.4709H28.4791H28.4872H28.4953H28.5033H28.5112H28.5191H28.5269H28.5346H28.5422H28.5498H28.5574H28.5648H28.5722H28.5795H28.5868H28.5939H28.601H28.6081H28.6151H28.622H28.6288H28.6355H28.6422H28.6488H28.6554H28.6618H28.6682H28.6746H28.6808H28.687H28.6931H28.6991H28.7051H28.711H28.7168H28.7225H28.7282H28.7337H28.7393H28.7447H28.75H28.7553H28.7605H28.7656H28.7707H28.7757H28.7806H28.7854H28.7901H28.7948H28.7994H28.8039H28.8083H28.8126H28.8169H28.8211H28.8252H28.8292H28.8332H28.837H28.8408H28.8445H28.8481H28.8516H28.8551H28.8585H28.8618C29.3032 35.1861 29.6266 35.3827 29.8227 35.6567C30.0004 35.9051 30.0546 36.1879 30.0546 36.3835V36.3848V36.3862V36.3876V36.389V36.3904V36.3918V36.3932V36.3946V36.3961V36.3975V36.399V36.4004V36.4019V36.4034V36.4048V36.4063V36.4078V36.4093V36.4109V36.4124V36.4139V36.4155V36.417V36.4186V36.4201V36.4217V36.4233V36.4249V36.4265V36.4281V36.4284ZM5.00486 41.9994V36.2004H3.7533V41.9994H5.00486ZM2.7533 41.9994V36.2004H1.50174V41.9994H2.7533Z" fill="#221C35"/>
</svg>
