<svg width="55" height="54" viewBox="0 0 55 54" fill="none" xmlns="http://www.w3.org/2000/svg">
<path fill-rule="evenodd" clip-rule="evenodd" d="M7 7.5H7.5H21.018H21.518V8V9.54696H25.8366V8H26.8366V9.54696H31.2659V8H32.2659V9.54696H36.5845V8H37.5845V9.54696H42.1247V8H43.1247V9.54696H45.9488V10.547H43.1247V15.0414H45.9488V16.0414H43.1247V20.5359H45.9488V21.5359H43.1247V25.7072H45.9488V26.7072H43.1247V31.0939H45.9488V32.0939H43.1247V34.5414H47.5H48V35.0414V47V47.5H47.5H7.5H7V47V8V7.5ZM42.1247 34.5414V32.0939H37.5845V34.5414H42.1247ZM36.5845 34.5414V32.0939H32.2659V34.5414H36.5845ZM31.2659 34.5414V32.0939H28.831V32.2403V34.5414H31.2659ZM32.2659 31.0939H36.5845V26.7072H32.2659V31.0939ZM31.2659 26.7072V31.0939H27.8692L26.8366 30.0899V26.7072H31.2659ZM32.2659 25.7072H36.5845V21.5359H32.2659V25.7072ZM31.2659 21.5359V25.7072H26.8366V21.5359H31.2659ZM32.2659 20.5359H36.5845V16.0414H32.2659V20.5359ZM31.2659 16.0414V20.5359H26.8366V16.0414H31.2659ZM32.2659 15.0414H36.5845V10.547H32.2659V15.0414ZM31.2659 10.547V15.0414H26.8366V10.547H31.2659ZM25.8366 10.547H21.518V15.0414H25.8366V10.547ZM25.8366 16.0414H21.518V20.5359H25.8366V16.0414ZM25.8366 21.5359H21.518V24.9186L22.329 25.7072H25.8366V21.5359ZM25.8366 26.7072H23.3575L25.8366 29.1176V26.7072ZM37.5845 10.547V15.0414H42.1247V10.547H37.5845ZM42.1247 16.0414H37.5845V20.5359H42.1247V16.0414ZM42.1247 21.5359H37.5845V25.7072H42.1247V21.5359ZM42.1247 26.7072H37.5845V31.0939H42.1247V26.7072ZM8 8.5V46.5H47V35.5414H42.6247H37.0845H31.7659H28.331H27.831V35.0414V32.4516L27.3176 31.9524L25.988 30.6596L21.7775 26.5657L20.6695 25.4883L20.518 25.3411V25.1298V21.0359V15.5414V10.047V8.5H8Z" fill="#221C35"/>
</svg>
