<svg width="55" height="54" viewBox="0 0 55 54" fill="none" xmlns="http://www.w3.org/2000/svg">
<path fill-rule="evenodd" clip-rule="evenodd" d="M7.5 19.7599V19.194L8.04171 18.9153L33.141 6L46.9617 13.3266L47.5 13.6119V14.1743V27.3134L22.359 39.7526L21.859 40L21.359 39.7526L7.5 32.8955V19.7599ZM8.5 32.2746V20.2901L21.359 27.1068V38.6369L8.5 32.2746ZM22.359 38.6369V27.111L46.5 14.6888V26.6925L22.359 38.6369ZM33.1341 7.12817L45.8783 13.8841L21.8624 26.2419L9.11823 19.486L33.1341 7.12817ZM48 30.5V29.6981L47.2799 30.051L22.0022 42.4421L8.22361 35.5528L7.5 35.191V36V40.5V40.809L7.77639 40.9472L21.7764 47.9472L21.9978 48.0579L22.2201 47.949L47.7201 35.449L48 35.3117V35V30.5ZM8.5 36.809L21.5 43.309V46.691L8.5 40.191V36.809ZM22.5 43.3117V46.6981L47 34.6883V31.3019L22.5 43.3117Z" fill="#221C35"/>
</svg>
