<svg width="55" height="54" viewBox="0 0 55 54" fill="none" xmlns="http://www.w3.org/2000/svg">
<path fill-rule="evenodd" clip-rule="evenodd" d="M40.6588 2.00002L40.9041 2.17029L44.303 4.52965L44.1436 4.75917C44.2705 4.65564 44.3969 4.55554 44.523 4.45966C45.2623 3.89754 46.0402 3.43963 46.8924 3.2705L46.9406 3.26093H46.9897C48.5349 3.26093 49.8577 3.56672 50.8749 4.40787C51.8933 5.25001 52.5243 6.56142 52.8326 8.39691C53.1393 10.2227 53.1367 12.4794 52.9869 14.5615C52.8368 16.6454 52.5363 18.5929 52.23 19.8089C51.6601 22.0706 51.6536 25.512 52.8135 28.965C53.4185 30.766 53.753 32.504 53.2675 34.2703C52.7811 36.04 51.4983 37.7465 49.0715 39.5526C46.6244 41.3737 44.4776 42.1324 42.2136 42.7315C41.6712 42.875 41.1255 43.0088 40.5689 43.1452C38.8012 43.5785 36.9235 44.0387 34.6912 44.9248C31.7891 46.0767 29.9036 47.5141 28.2832 48.8297C28.1331 48.9515 27.9847 49.0729 27.8375 49.1933C26.4086 50.3621 25.0835 51.446 23.3696 52.0129C23.1378 52.0895 22.9099 52.1666 22.6874 52.2418C22.2137 52.4019 21.7645 52.5538 21.3542 52.6762C20.7506 52.8563 20.1752 52.991 19.6542 52.9995C19.1859 53.0072 18.5853 52.9547 17.9865 52.7448C17.0929 52.5919 16.3471 52.4364 15.7278 52.2584C14.7745 51.9845 14.0614 51.6416 13.5628 51.1185C13.2967 50.8394 13.1068 50.525 12.9705 50.1755C12.924 50.2812 12.8409 50.3713 12.7285 50.425L10.6905 51.3992L10.4864 51.4968L10.2783 51.4079L2.80552 48.2129L2.50208 48.0831V47.7531V35.6122V34.8547L3.19864 35.1525L10.4634 38.2585L12.2973 37.3819C12.3687 37.3478 12.4442 37.3321 12.5183 37.3329C12.502 36.8147 12.5117 36.3194 12.5401 35.8444L10.3497 36.8827L10.138 36.983L9.92548 36.8846L2.79236 33.5833L2.50237 33.4491V33.1295V21.6848V21.378L2.77596 21.239L40.3925 2.13522L40.6588 2.00002ZM12.6474 34.6869L10.6355 35.6406V25.8949L12.2575 25.09C12.2737 25.1125 12.2897 25.1349 12.3056 25.1571C12.7087 25.7223 13.0606 26.266 13.217 26.8869L13.2217 26.9056L13.2279 26.924C13.7744 28.5508 13.5109 30.0475 13.1374 31.9008L13.098 32.0956C12.9365 32.8946 12.7635 33.7502 12.6474 34.6869ZM11.6795 24.2605L10.1467 25.0211L4.07446 21.7012L40.5791 3.16204L43.5748 5.24149C43.2919 5.48883 43.0069 5.74703 42.7196 6.00739L42.7195 6.00746C42.5709 6.14208 42.4217 6.27727 42.2718 6.41185C40.7147 7.80979 39.0113 9.2065 36.7641 9.76397C34.375 10.3566 31.2332 11.247 28.3099 12.3627C25.4071 13.4705 22.644 14.8279 21.0772 16.3826C19.6966 17.7525 18.1823 18.1706 16.6333 18.5365C16.5385 18.5589 16.4432 18.5812 16.3476 18.6035C14.9069 18.9397 13.3873 19.2944 12.1608 20.5115C11.66 21.0084 11.3415 21.4931 11.1959 21.9865C11.0474 22.4898 11.092 22.9572 11.24 23.3881C11.3429 23.6881 11.5012 23.98 11.6795 24.2605ZM12.5831 38.3536C12.5915 38.4409 12.6006 38.5287 12.6105 38.6172C12.9078 41.2719 12.9008 41.959 12.8334 42.5611C12.8204 42.6767 12.805 42.7912 12.7884 42.9147C12.7109 43.49 12.6073 44.259 12.6073 46.2295V46.2643C12.6073 47.4149 12.6073 48.3653 12.7143 49.1337C12.7345 49.2789 12.7588 49.4198 12.7881 49.5564C12.6466 49.4633 12.4613 49.4444 12.2973 49.5228L10.9749 50.1549V39.1224L12.5831 38.3536ZM9.63549 35.6485V25.8813L3.50237 22.5281V32.81L9.63549 35.6485ZM9.97488 50.1906V39.1372L3.50208 36.3698V47.4231L9.97488 50.1906ZM18.2437 51.7742C18.6793 51.8478 19.1555 51.9219 19.6766 51.9987C20.048 51.9866 20.5034 51.8865 21.0682 51.718C21.4612 51.6007 21.8819 51.4584 22.3449 51.3019C22.5711 51.2254 22.8075 51.1455 23.0556 51.0635C24.5844 50.5578 25.7649 49.594 27.2233 48.4034C27.3637 48.2887 27.5067 48.172 27.6529 48.0533C29.3017 46.7146 31.2801 45.2028 34.3223 43.9953C36.6249 43.0814 38.5904 42.5999 40.3691 42.1641L40.3691 42.1641C40.9148 42.0304 41.4429 41.901 41.9578 41.7648C44.1519 41.1842 46.1661 40.4683 48.4745 38.7504C50.8031 37.0174 51.898 35.4798 52.3032 34.0053C52.7094 32.5276 52.4494 31.0214 51.8656 29.2834C50.6478 25.6583 50.6412 22.0216 51.2603 19.5646C51.5483 18.4212 51.8422 16.5347 51.9894 14.4897C52.1342 12.4789 52.1343 10.3519 51.8613 8.65323C51.6101 8.23883 51.3622 8.01028 51.1357 7.89151C50.9038 7.77 50.6495 7.73969 50.3471 7.7997C49.6975 7.92862 48.9133 8.45332 47.9786 9.23246C47.5711 9.57211 47.1522 9.9446 46.7175 10.3312L46.7174 10.3313L46.559 10.4721C46.0703 10.9064 45.5635 11.3533 45.0475 11.7713C44.0246 12.6001 42.9188 13.3556 41.7762 13.6795C40.6021 14.0124 39.9044 14.2594 39.1006 14.5441L39.1006 14.5441C38.8633 14.6281 38.6167 14.7154 38.3458 14.8092C37.1572 15.2207 35.5377 15.7432 32.2596 16.6303C29.052 17.4984 27.4868 18.499 26.4365 19.4022C26.0774 19.7111 25.787 19.9994 25.4979 20.2865L25.4978 20.2865L25.4977 20.2866C25.346 20.4373 25.1946 20.5876 25.0338 20.7404C24.5801 21.1714 24.0927 21.5778 23.4348 21.9041C22.1552 22.539 21.2845 22.5889 20.4716 22.6351L20.4697 22.6352C19.7028 22.6788 18.9933 22.7192 17.8961 23.2635C17.3833 23.5179 17.0614 23.7828 16.8692 24.0419C16.7408 24.215 16.6624 24.3958 16.6274 24.5907C16.6268 24.6914 16.6197 24.795 16.6058 24.9016C16.6078 26.6741 16.7614 27.8316 17.0145 28.6843C17.2655 29.5301 17.6214 30.1013 18.0728 30.6985C18.8901 31.7797 18.7218 33.1552 18.3761 34.4063C18.2094 35.0096 17.9882 35.6275 17.7763 36.2195L17.7382 36.3259C17.5119 36.9589 17.3005 37.5594 17.1588 38.1221C16.8782 39.2358 16.8786 40.0551 16.9489 40.8153C16.9705 41.0488 17.001 41.2908 17.0327 41.5415L17.0327 41.5417C17.1008 42.0802 17.1739 42.6588 17.1739 43.2803C17.1739 44.0596 17.0008 45.3421 16.845 46.4958L16.8396 46.5361C16.7596 47.1289 16.6836 47.6925 16.6328 48.161C16.58 48.6473 16.5614 48.9762 16.5769 49.128L16.5781 49.1401L16.5788 49.1522C16.6476 50.4494 17.1528 51.1318 17.7212 51.5085C17.8866 51.6181 18.0629 51.7054 18.2437 51.7742ZM50.2376 5.17851C50.7179 5.5757 51.1166 6.13674 51.4176 6.92108C51.0054 6.75322 50.5765 6.73466 50.1524 6.81883C49.2231 7.00327 48.2611 7.69512 47.3383 8.46431C46.9176 8.81497 46.4861 9.19875 46.0532 9.58372L46.0531 9.5838L45.8948 9.72458C45.406 10.159 44.9144 10.5922 44.418 10.9944C43.4161 11.8061 42.4414 12.4515 41.5035 12.7174C40.2962 13.0597 39.5652 13.3186 38.7556 13.6053C38.521 13.6884 38.2799 13.7738 38.0186 13.8642C36.856 14.2668 35.2591 14.7826 31.9984 15.665C28.6674 16.5665 26.9632 17.6304 25.7844 18.6441C25.4002 18.9745 25.062 19.3099 24.7576 19.6117C24.6128 19.7553 24.4758 19.8912 24.345 20.0155C23.9256 20.4139 23.5214 20.7449 22.9904 21.0083C21.8932 21.5527 21.1837 21.593 20.4168 21.6366L20.4149 21.6367C19.602 21.6829 18.7313 21.7328 17.4517 22.3677C16.9289 22.6271 16.5086 22.9274 16.2007 23.2793C16.0532 23.0772 15.8732 22.8948 15.6696 22.7309C15.0407 22.2245 14.1623 21.8684 13.2644 21.5714C13.0524 21.5013 12.8508 21.4556 12.6605 21.4374C12.7221 21.3677 12.7902 21.2957 12.8651 21.2213C13.8844 20.2099 15.1409 19.9146 16.6389 19.5626L16.8632 19.5098C18.4349 19.1384 20.19 18.6717 21.7815 17.0924C23.1869 15.6979 25.7736 14.401 28.6665 13.2969C31.5388 12.2007 34.6385 11.3216 37.0049 10.7345C39.5131 10.1123 41.3762 8.5598 42.9399 7.15596C43.099 7.01306 43.2544 6.87229 43.4068 6.73429C44.0145 6.18383 44.5735 5.67749 45.1283 5.2557C45.8023 4.7432 46.422 4.39462 47.0403 4.26105C48.4416 4.26772 49.4806 4.55253 50.2376 5.17851ZM15.0424 23.5098C15.4118 23.8072 15.6096 24.1264 15.6261 24.5243C15.6112 24.6379 15.6046 24.7533 15.6058 24.8703C15.606 26.7094 15.763 27.9823 16.0558 28.9688C16.3524 29.9682 16.7805 30.6471 17.275 31.3014C17.7839 31.9747 17.7494 32.9195 17.4122 34.14C17.2557 34.7062 17.0462 35.2916 16.8309 35.8932L16.7966 35.9892C16.5725 36.6158 16.3445 37.2608 16.1891 37.8778C15.8752 39.1234 15.8748 40.0596 15.9531 40.9073C15.9811 41.2097 16.0162 41.4844 16.0501 41.7499C16.1141 42.2507 16.1739 42.7192 16.1739 43.2803C16.1739 43.9841 16.0104 45.2035 15.8486 46.4024L15.8483 46.4046L15.8482 46.4049C15.7689 46.9927 15.691 47.5697 15.6386 48.0532C15.5888 48.5123 15.5551 48.9411 15.5808 49.2164C15.6295 50.1057 15.8568 50.8072 16.2003 51.3517C16.1332 51.3338 16.0678 51.3156 16.004 51.2973C15.1182 51.0428 14.6054 50.763 14.2866 50.4286C13.9775 50.1043 13.7991 49.6737 13.7047 48.9958C13.6084 48.3041 13.6073 47.4227 13.6073 46.2295C13.6073 44.3248 13.7043 43.6053 13.7808 43.0375L13.7808 43.0372C13.7977 42.9119 13.8135 42.794 13.8272 42.6724C13.9084 41.9473 13.9015 41.1598 13.6043 38.5059C13.3258 36.0186 13.7194 34.07 14.0828 32.2712L14.1177 32.0984C14.486 30.271 14.8161 28.5287 14.1818 26.6236C13.9732 25.8126 13.5229 25.1417 13.1197 24.5764C13.0691 24.5055 13.0197 24.4367 12.9716 24.3698C12.6194 23.8795 12.3386 23.4887 12.1955 23.0912C12.1756 22.9895 12.1658 22.8731 12.174 22.7638C12.1832 22.6417 12.2123 22.5605 12.2427 22.5148C12.2641 22.4827 12.2933 22.4538 12.3694 22.4383C12.4619 22.4194 12.642 22.4188 12.9503 22.5208C13.8357 22.8136 14.5641 23.1247 15.0424 23.5098Z" fill="#221C35"/>
</svg>
